<svg width="429" height="567" viewBox="0 0 429 567" fill="none" xmlns="http://www.w3.org/2000/svg">
<path d="M18.0209 23.6935L0 33.3316V512.021H18.0209C22.5261 513.494 33.8393 516.439 43.0499 516.439C54.5633 516.439 65.5761 522.061 65.5761 528.084C65.5761 534.108 80.0929 534.51 106.123 534.51H121.641L136.659 528.084C147.504 528.486 169.196 530.333 169.196 534.51C169.196 538.686 193.224 552.046 205.238 558.203H211.746L278.323 561.014L277.058 558.203V545.754L283.565 562.621L297.846 555.392C297.846 558.739 319.17 582.218 317.869 550.975C317.657 545.898 315.866 544.549 321.373 544.549L335.89 561.014C341.563 561.282 355.412 558.766 365.424 546.557C375.436 534.349 377.938 533.439 377.938 534.51L385.447 522.061L387.95 512.021L400.465 504.793L431 516.439V0H418.485C414.648 5.48833 406.772 16.9469 405.971 18.8745C405.17 20.8021 401.966 22.8904 400.465 23.6935L385.447 43.3712V49.7966L377.938 57.0251L365.424 49.7966L352.909 43.3712L335.89 33.3316H315.866L303.352 23.6935L291.839 16.465L271.815 23.6935H246.786L224.26 33.3316L216.751 16.465L197.229 23.6935L189.22 33.3316L175.704 23.6935L169.196 16.465L159.185 33.3316L142.165 36.1427L136.659 16.465L121.641 8.0317L114.132 16.465H98.1138L88.1022 23.6935L80.0929 16.465L65.5761 23.6935L50.5587 33.3316L43.0499 23.6935L31.5366 16.465L18.0209 23.6935Z" fill="#CFDDD3"/>
<path d="M196.667 123C196.667 125.946 199.054 128.333 202 128.333C204.946 128.333 207.333 125.946 207.333 123C207.333 120.054 204.946 117.667 202 117.667C199.054 117.667 196.667 120.054 196.667 123ZM196.667 492C196.667 494.946 199.054 497.333 202 497.333C204.946 497.333 207.333 494.946 207.333 492C207.333 489.054 204.946 486.667 202 486.667C199.054 486.667 196.667 489.054 196.667 492ZM201.003 123.083C204.62 166.649 202.51 418.818 201 491.979L203 492.021C204.508 418.913 206.624 166.613 202.997 122.917L201.003 123.083Z" fill="#303030"/>
<path d="M103.056 164.162C101.808 164.162 100.74 163.898 99.852 163.37C98.964 162.842 98.28 162.092 97.8 161.12C97.332 160.148 97.098 158.99 97.098 157.646C97.098 156.638 97.23 155.738 97.494 154.946C97.77 154.142 98.16 153.464 98.664 152.912C99.18 152.348 99.81 151.916 100.554 151.616C101.298 151.304 102.132 151.148 103.056 151.148C103.8 151.148 104.508 151.256 105.18 151.472C105.852 151.676 106.434 151.982 106.926 152.39C107.082 152.51 107.184 152.648 107.232 152.804C107.292 152.948 107.298 153.092 107.25 153.236C107.214 153.368 107.142 153.482 107.034 153.578C106.938 153.662 106.818 153.704 106.674 153.704C106.53 153.704 106.368 153.644 106.188 153.524C105.756 153.176 105.282 152.918 104.766 152.75C104.25 152.582 103.692 152.498 103.092 152.498C102.144 152.498 101.34 152.702 100.68 153.11C100.02 153.506 99.522 154.088 99.186 154.856C98.85 155.624 98.682 156.554 98.682 157.646C98.682 158.738 98.85 159.674 99.186 160.454C99.522 161.222 100.02 161.81 100.68 162.218C101.34 162.614 102.144 162.812 103.092 162.812C103.68 162.812 104.238 162.728 104.766 162.56C105.294 162.38 105.78 162.116 106.224 161.768C106.404 161.648 106.566 161.594 106.71 161.606C106.854 161.606 106.974 161.648 107.07 161.732C107.166 161.816 107.232 161.924 107.268 162.056C107.316 162.188 107.316 162.326 107.268 162.47C107.232 162.614 107.142 162.74 106.998 162.848C106.494 163.28 105.9 163.61 105.216 163.838C104.544 164.054 103.824 164.162 103.056 164.162ZM110.487 164C110.223 164 110.019 163.934 109.875 163.802C109.743 163.658 109.677 163.454 109.677 163.19V152.12C109.677 151.856 109.743 151.658 109.875 151.526C110.019 151.382 110.223 151.31 110.487 151.31H117.183C117.387 151.31 117.543 151.364 117.651 151.472C117.759 151.58 117.813 151.73 117.813 151.922C117.813 152.126 117.759 152.282 117.651 152.39C117.543 152.498 117.387 152.552 117.183 152.552H111.117V156.944H116.805C117.009 156.944 117.165 156.998 117.273 157.106C117.381 157.202 117.435 157.352 117.435 157.556C117.435 157.76 117.381 157.916 117.273 158.024C117.165 158.132 117.009 158.186 116.805 158.186H111.117V162.758H117.183C117.387 162.758 117.543 162.812 117.651 162.92C117.759 163.028 117.813 163.178 117.813 163.37C117.813 163.574 117.759 163.73 117.651 163.838C117.543 163.946 117.387 164 117.183 164H110.487ZM120.909 164.126C120.669 164.126 120.483 164.06 120.351 163.928C120.231 163.784 120.171 163.592 120.171 163.352V152.066C120.171 151.814 120.237 151.628 120.369 151.508C120.501 151.376 120.687 151.31 120.927 151.31H125.193C126.549 151.31 127.593 151.628 128.325 152.264C129.057 152.9 129.423 153.806 129.423 154.982C129.423 155.726 129.255 156.374 128.919 156.926C128.595 157.466 128.115 157.88 127.479 158.168C126.843 158.444 126.081 158.582 125.193 158.582L125.373 158.348H125.733C126.201 158.348 126.609 158.468 126.957 158.708C127.305 158.948 127.623 159.332 127.911 159.86L129.639 163.082C129.735 163.25 129.777 163.418 129.765 163.586C129.765 163.742 129.711 163.874 129.603 163.982C129.495 164.078 129.339 164.126 129.135 164.126C128.931 164.126 128.763 164.078 128.631 163.982C128.499 163.886 128.385 163.748 128.289 163.568L126.327 159.932C126.051 159.416 125.733 159.074 125.373 158.906C125.013 158.726 124.539 158.636 123.951 158.636H121.647V163.352C121.647 163.592 121.587 163.784 121.467 163.928C121.347 164.06 121.161 164.126 120.909 164.126ZM121.647 157.466H124.977C125.961 157.466 126.705 157.262 127.209 156.854C127.713 156.434 127.965 155.81 127.965 154.982C127.965 154.178 127.713 153.572 127.209 153.164C126.705 152.744 125.961 152.534 124.977 152.534H121.647V157.466ZM133.022 164C132.758 164 132.554 163.934 132.41 163.802C132.278 163.658 132.212 163.454 132.212 163.19V152.12C132.212 151.856 132.278 151.658 132.41 151.526C132.554 151.382 132.758 151.31 133.022 151.31H139.718C139.922 151.31 140.078 151.364 140.186 151.472C140.294 151.58 140.348 151.73 140.348 151.922C140.348 152.126 140.294 152.282 140.186 152.39C140.078 152.498 139.922 152.552 139.718 152.552H133.652V156.944H139.34C139.544 156.944 139.7 156.998 139.808 157.106C139.916 157.202 139.97 157.352 139.97 157.556C139.97 157.76 139.916 157.916 139.808 158.024C139.7 158.132 139.544 158.186 139.34 158.186H133.652V162.758H139.718C139.922 162.758 140.078 162.812 140.186 162.92C140.294 163.028 140.348 163.178 140.348 163.37C140.348 163.574 140.294 163.73 140.186 163.838C140.078 163.946 139.922 164 139.718 164H133.022ZM143.427 164.126C143.211 164.126 143.043 164.066 142.923 163.946C142.803 163.814 142.743 163.634 142.743 163.406V151.904C142.743 151.664 142.803 151.484 142.923 151.364C143.043 151.244 143.211 151.184 143.427 151.184C143.619 151.184 143.769 151.226 143.877 151.31C143.997 151.382 144.105 151.508 144.201 151.688L149.133 160.976H148.593L153.507 151.688C153.603 151.508 153.705 151.382 153.813 151.31C153.921 151.226 154.077 151.184 154.281 151.184C154.485 151.184 154.647 151.244 154.767 151.364C154.887 151.484 154.947 151.664 154.947 151.904V163.406C154.947 163.634 154.887 163.814 154.767 163.946C154.659 164.066 154.491 164.126 154.263 164.126C154.047 164.126 153.879 164.066 153.759 163.946C153.639 163.814 153.579 163.634 153.579 163.406V153.29H154.011L149.511 161.732C149.427 161.888 149.337 162.002 149.241 162.074C149.157 162.134 149.031 162.164 148.863 162.164C148.695 162.164 148.563 162.128 148.467 162.056C148.371 161.984 148.287 161.876 148.215 161.732L143.661 153.272H144.093V163.406C144.093 163.634 144.033 163.814 143.913 163.946C143.805 164.066 143.643 164.126 143.427 164.126ZM163.433 164.162C162.257 164.162 161.231 163.898 160.355 163.37C159.491 162.83 158.819 162.074 158.339 161.102C157.871 160.13 157.637 158.978 157.637 157.646C157.637 156.638 157.769 155.738 158.033 154.946C158.309 154.142 158.699 153.464 159.203 152.912C159.707 152.348 160.313 151.916 161.021 151.616C161.741 151.304 162.545 151.148 163.433 151.148C164.633 151.148 165.665 151.412 166.529 151.94C167.405 152.468 168.077 153.218 168.545 154.19C169.025 155.15 169.265 156.296 169.265 157.628C169.265 158.636 169.127 159.542 168.851 160.346C168.575 161.15 168.185 161.834 167.681 162.398C167.177 162.962 166.565 163.4 165.845 163.712C165.137 164.012 164.333 164.162 163.433 164.162ZM163.433 162.848C164.345 162.848 165.113 162.644 165.737 162.236C166.373 161.828 166.859 161.234 167.195 160.454C167.531 159.674 167.699 158.738 167.699 157.646C167.699 156.002 167.327 154.73 166.583 153.83C165.851 152.918 164.801 152.462 163.433 152.462C162.545 152.462 161.783 152.666 161.147 153.074C160.523 153.482 160.043 154.076 159.707 154.856C159.371 155.624 159.203 156.554 159.203 157.646C159.203 159.278 159.575 160.556 160.319 161.48C161.063 162.392 162.101 162.848 163.433 162.848ZM172.606 164.126C172.378 164.126 172.204 164.066 172.084 163.946C171.964 163.814 171.904 163.628 171.904 163.388V151.94C171.904 151.7 171.964 151.514 172.084 151.382C172.204 151.25 172.36 151.184 172.552 151.184C172.744 151.184 172.882 151.22 172.966 151.292C173.062 151.352 173.17 151.466 173.29 151.634L181.138 162.092H180.706V151.904C180.706 151.676 180.766 151.502 180.886 151.382C181.006 151.25 181.18 151.184 181.408 151.184C181.624 151.184 181.786 151.25 181.894 151.382C182.014 151.502 182.074 151.676 182.074 151.904V163.406C182.074 163.634 182.02 163.814 181.912 163.946C181.816 164.066 181.672 164.126 181.48 164.126C181.3 164.126 181.156 164.09 181.048 164.018C180.94 163.946 180.826 163.832 180.706 163.676L172.876 153.218H173.29V163.388C173.29 163.628 173.23 163.814 173.11 163.946C172.99 164.066 172.822 164.126 172.606 164.126ZM185.966 164.126C185.726 164.126 185.54 164.06 185.408 163.928C185.288 163.784 185.228 163.592 185.228 163.352V151.958C185.228 151.706 185.288 151.514 185.408 151.382C185.54 151.25 185.726 151.184 185.966 151.184C186.206 151.184 186.386 151.25 186.506 151.382C186.638 151.514 186.704 151.706 186.704 151.958V163.352C186.704 163.592 186.644 163.784 186.524 163.928C186.404 164.06 186.218 164.126 185.966 164.126ZM189.581 164.126C189.389 164.126 189.233 164.084 189.113 164C189.005 163.904 188.939 163.784 188.915 163.64C188.903 163.484 188.939 163.31 189.023 163.118L193.973 151.85C194.081 151.61 194.207 151.442 194.351 151.346C194.507 151.238 194.675 151.184 194.855 151.184C195.035 151.184 195.197 151.238 195.341 151.346C195.497 151.442 195.623 151.61 195.719 151.85L200.687 163.118C200.783 163.31 200.819 163.484 200.795 163.64C200.783 163.796 200.723 163.916 200.615 164C200.507 164.084 200.357 164.126 200.165 164.126C199.949 164.126 199.775 164.072 199.643 163.964C199.511 163.844 199.403 163.676 199.319 163.46L197.987 160.382L198.707 160.76H190.967L191.705 160.382L190.391 163.46C190.283 163.688 190.169 163.856 190.049 163.964C189.929 164.072 189.773 164.126 189.581 164.126ZM194.837 153.038L191.939 159.86L191.507 159.518H198.167L197.771 159.86L194.873 153.038H194.837Z" fill="#393939"/>
<path d="M20.512 176C20.1173 176 19.8133 175.899 19.6 175.696C19.3973 175.483 19.296 175.184 19.296 174.8C19.296 174.416 19.3973 174.123 19.6 173.92C19.8133 173.717 20.1173 173.616 20.512 173.616H21.952V167.072H23.296L20.976 168.496C20.6987 168.667 20.4373 168.736 20.192 168.704C19.9467 168.661 19.7387 168.555 19.568 168.384C19.3973 168.213 19.2853 168.005 19.232 167.76C19.1787 167.515 19.2 167.269 19.296 167.024C19.392 166.779 19.584 166.571 19.872 166.4L22.08 165.024C22.3147 164.875 22.5547 164.763 22.8 164.688C23.056 164.613 23.3227 164.576 23.6 164.576C24.0053 164.576 24.32 164.683 24.544 164.896C24.768 165.099 24.88 165.397 24.88 165.792V173.616H26.16C26.5547 173.616 26.8533 173.717 27.056 173.92C27.2693 174.123 27.376 174.416 27.376 174.8C27.376 175.184 27.2693 175.483 27.056 175.696C26.8533 175.899 26.5547 176 26.16 176H20.512ZM32.3138 176.176C31.8018 176.176 31.2631 176.117 30.6978 176C30.1324 175.883 29.6098 175.701 29.1298 175.456C28.8418 175.307 28.6391 175.115 28.5218 174.88C28.4151 174.635 28.3778 174.389 28.4098 174.144C28.4524 173.899 28.5484 173.68 28.6978 173.488C28.8578 173.296 29.0551 173.173 29.2898 173.12C29.5351 173.056 29.8018 173.099 30.0898 173.248C30.4418 173.419 30.8044 173.547 31.1778 173.632C31.5618 173.717 31.9191 173.76 32.2498 173.76C32.6124 173.76 32.9218 173.707 33.1778 173.6C33.4338 173.493 33.6258 173.339 33.7538 173.136C33.8924 172.933 33.9618 172.693 33.9618 172.416C33.9618 171.989 33.8178 171.653 33.5298 171.408C33.2418 171.163 32.8578 171.04 32.3778 171.04C32.1644 171.04 31.9298 171.072 31.6738 171.136C31.4284 171.2 31.1724 171.323 30.9058 171.504C30.7884 171.568 30.6284 171.643 30.4258 171.728C30.2231 171.803 30.0151 171.84 29.8018 171.84C29.4178 171.84 29.1351 171.749 28.9538 171.568C28.7724 171.387 28.6818 171.131 28.6818 170.8V165.968C28.6818 165.563 28.7884 165.253 29.0018 165.04C29.2258 164.827 29.5351 164.72 29.9298 164.72H34.9538C35.3484 164.72 35.6524 164.821 35.8658 165.024C36.0791 165.227 36.1858 165.525 36.1858 165.92C36.1858 166.304 36.0791 166.597 35.8658 166.8C35.6524 167.003 35.3484 167.104 34.9538 167.104H31.4498V169.616H30.7778C31.0338 169.317 31.3698 169.093 31.7858 168.944C32.2018 168.784 32.6551 168.704 33.1458 168.704C33.8604 168.704 34.4898 168.859 35.0338 169.168C35.5778 169.467 35.9991 169.888 36.2978 170.432C36.6071 170.976 36.7618 171.611 36.7618 172.336C36.7618 173.104 36.5804 173.781 36.2178 174.368C35.8658 174.944 35.3538 175.392 34.6818 175.712C34.0204 176.021 33.2311 176.176 32.3138 176.176ZM39.3635 176.096C38.8835 176.096 38.4995 175.952 38.2115 175.664C37.9342 175.376 37.7955 174.997 37.7955 174.528C37.7955 174.069 37.9342 173.701 38.2115 173.424C38.4995 173.136 38.8835 172.992 39.3635 172.992C39.8648 172.992 40.2488 173.136 40.5155 173.424C40.7928 173.701 40.9315 174.069 40.9315 174.528C40.9315 174.997 40.7928 175.376 40.5155 175.664C40.2488 175.952 39.8648 176.096 39.3635 176.096ZM39.3635 171.136C38.8835 171.136 38.4995 170.992 38.2115 170.704C37.9342 170.405 37.7955 170.032 37.7955 169.584C37.7955 169.115 37.9342 168.741 38.2115 168.464C38.4995 168.176 38.8835 168.032 39.3635 168.032C39.8648 168.032 40.2488 168.176 40.5155 168.464C40.7928 168.741 40.9315 169.115 40.9315 169.584C40.9315 170.032 40.7928 170.405 40.5155 170.704C40.2488 170.992 39.8648 171.136 39.3635 171.136ZM46.3469 176.176C44.9602 176.176 43.8935 175.669 43.1469 174.656C42.4109 173.632 42.0429 172.187 42.0429 170.32C42.0429 169.061 42.2082 168.005 42.5389 167.152C42.8695 166.288 43.3549 165.637 43.9949 165.2C44.6349 164.763 45.4189 164.544 46.3469 164.544C47.7442 164.544 48.8109 165.035 49.5469 166.016C50.2829 166.997 50.6509 168.427 50.6509 170.304C50.6509 171.552 50.4855 172.613 50.1549 173.488C49.8242 174.363 49.3389 175.029 48.6989 175.488C48.0589 175.947 47.2749 176.176 46.3469 176.176ZM46.3469 173.84C46.8589 173.84 47.2375 173.563 47.4829 173.008C47.7389 172.443 47.8669 171.541 47.8669 170.304C47.8669 169.077 47.7389 168.203 47.4829 167.68C47.2375 167.147 46.8589 166.88 46.3469 166.88C45.8349 166.88 45.4509 167.147 45.1949 167.68C44.9495 168.203 44.8269 169.077 44.8269 170.304C44.8269 171.541 44.9495 172.443 45.1949 173.008C45.4509 173.563 45.8349 173.84 46.3469 173.84ZM55.9406 176.176C54.554 176.176 53.4873 175.669 52.7406 174.656C52.0046 173.632 51.6366 172.187 51.6366 170.32C51.6366 169.061 51.802 168.005 52.1326 167.152C52.4633 166.288 52.9486 165.637 53.5886 165.2C54.2286 164.763 55.0126 164.544 55.9406 164.544C57.338 164.544 58.4046 165.035 59.1406 166.016C59.8766 166.997 60.2446 168.427 60.2446 170.304C60.2446 171.552 60.0793 172.613 59.7486 173.488C59.418 174.363 58.9326 175.029 58.2926 175.488C57.6526 175.947 56.8686 176.176 55.9406 176.176ZM55.9406 173.84C56.4526 173.84 56.8313 173.563 57.0766 173.008C57.3326 172.443 57.4606 171.541 57.4606 170.304C57.4606 169.077 57.3326 168.203 57.0766 167.68C56.8313 167.147 56.4526 166.88 55.9406 166.88C55.4286 166.88 55.0446 167.147 54.7886 167.68C54.5433 168.203 54.4206 169.077 54.4206 170.304C54.4206 171.541 54.5433 172.443 54.7886 173.008C55.0446 173.563 55.4286 173.84 55.9406 173.84Z" fill="#393939"/>
<line x1="78" y1="170.5" x2="204" y2="170.5" stroke="#313131" stroke-dasharray="2 2"/>
<path d="M351.512 252C351.117 252 350.813 251.899 350.6 251.696C350.397 251.483 350.296 251.184 350.296 250.8C350.296 250.416 350.397 250.123 350.6 249.92C350.813 249.717 351.117 249.616 351.512 249.616H352.952V243.072H354.296L351.976 244.496C351.699 244.667 351.437 244.736 351.192 244.704C350.947 244.661 350.739 244.555 350.568 244.384C350.397 244.213 350.285 244.005 350.232 243.76C350.179 243.515 350.2 243.269 350.296 243.024C350.392 242.779 350.584 242.571 350.872 242.4L353.08 241.024C353.315 240.875 353.555 240.763 353.8 240.688C354.056 240.613 354.323 240.576 354.6 240.576C355.005 240.576 355.32 240.683 355.544 240.896C355.768 241.099 355.88 241.397 355.88 241.792V249.616H357.16C357.555 249.616 357.853 249.717 358.056 249.92C358.269 250.123 358.376 250.416 358.376 250.8C358.376 251.184 358.269 251.483 358.056 251.696C357.853 251.899 357.555 252 357.16 252H351.512ZM361.426 252.144C361.063 252.144 360.77 252.064 360.546 251.904C360.322 251.733 360.194 251.509 360.162 251.232C360.13 250.955 360.204 250.651 360.386 250.32L364.818 242.272V243.12H360.322C359.927 243.12 359.618 243.019 359.394 242.816C359.18 242.613 359.074 242.315 359.074 241.92C359.074 241.525 359.18 241.227 359.394 241.024C359.618 240.821 359.927 240.72 360.322 240.72H366.338C366.732 240.72 367.058 240.827 367.314 241.04C367.58 241.253 367.714 241.557 367.714 241.952C367.714 242.293 367.66 242.592 367.554 242.848C367.458 243.093 367.335 243.355 367.186 243.632L363.09 251.216C362.919 251.547 362.7 251.787 362.434 251.936C362.178 252.075 361.842 252.144 361.426 252.144ZM370.364 252.096C369.884 252.096 369.5 251.952 369.212 251.664C368.934 251.376 368.796 250.997 368.796 250.528C368.796 250.069 368.934 249.701 369.212 249.424C369.5 249.136 369.884 248.992 370.364 248.992C370.865 248.992 371.249 249.136 371.516 249.424C371.793 249.701 371.932 250.069 371.932 250.528C371.932 250.997 371.793 251.376 371.516 251.664C371.249 251.952 370.865 252.096 370.364 252.096ZM370.364 247.136C369.884 247.136 369.5 246.992 369.212 246.704C368.934 246.405 368.796 246.032 368.796 245.584C368.796 245.115 368.934 244.741 369.212 244.464C369.5 244.176 369.884 244.032 370.364 244.032C370.865 244.032 371.249 244.176 371.516 244.464C371.793 244.741 371.932 245.115 371.932 245.584C371.932 246.032 371.793 246.405 371.516 246.704C371.249 246.992 370.865 247.136 370.364 247.136ZM377.011 252.176C376.467 252.176 375.923 252.123 375.379 252.016C374.835 251.909 374.366 251.76 373.971 251.568C373.63 251.408 373.39 251.211 373.251 250.976C373.123 250.741 373.07 250.501 373.091 250.256C373.112 250.011 373.198 249.792 373.347 249.6C373.507 249.408 373.71 249.28 373.955 249.216C374.211 249.141 374.499 249.173 374.819 249.312C375.214 249.483 375.576 249.6 375.907 249.664C376.238 249.728 376.568 249.76 376.899 249.76C377.283 249.76 377.603 249.717 377.859 249.632C378.115 249.547 378.307 249.419 378.435 249.248C378.563 249.067 378.627 248.843 378.627 248.576C378.627 248.203 378.494 247.931 378.227 247.76C377.971 247.579 377.592 247.488 377.091 247.488H376.227C375.822 247.488 375.512 247.387 375.299 247.184C375.086 246.981 374.979 246.693 374.979 246.32C374.979 245.947 375.086 245.659 375.299 245.456C375.512 245.253 375.822 245.152 376.227 245.152H376.803C377.112 245.152 377.374 245.109 377.587 245.024C377.811 244.939 377.982 244.816 378.099 244.656C378.216 244.485 378.275 244.277 378.275 244.032C378.275 243.68 378.147 243.413 377.891 243.232C377.646 243.051 377.278 242.96 376.787 242.96C376.488 242.96 376.184 242.992 375.875 243.056C375.566 243.12 375.235 243.232 374.883 243.392C374.606 243.509 374.35 243.536 374.115 243.472C373.891 243.408 373.704 243.285 373.555 243.104C373.416 242.912 373.331 242.704 373.299 242.48C373.267 242.245 373.304 242.016 373.411 241.792C373.518 241.568 373.72 241.381 374.019 241.232C374.467 241.008 374.952 240.837 375.475 240.72C376.008 240.603 376.542 240.544 377.075 240.544C377.918 240.544 378.638 240.667 379.235 240.912C379.832 241.157 380.286 241.515 380.595 241.984C380.915 242.443 381.075 242.997 381.075 243.648C381.075 244.075 380.995 244.469 380.835 244.832C380.675 245.195 380.44 245.499 380.131 245.744C379.822 245.979 379.459 246.149 379.043 246.256V246.032C379.79 246.149 380.371 246.464 380.787 246.976C381.214 247.477 381.427 248.107 381.427 248.864C381.427 249.547 381.251 250.139 380.899 250.64C380.547 251.141 380.04 251.525 379.379 251.792C378.718 252.048 377.928 252.176 377.011 252.176ZM386.941 252.176C385.554 252.176 384.487 251.669 383.741 250.656C383.005 249.632 382.637 248.187 382.637 246.32C382.637 245.061 382.802 244.005 383.133 243.152C383.463 242.288 383.949 241.637 384.589 241.2C385.229 240.763 386.013 240.544 386.941 240.544C388.338 240.544 389.405 241.035 390.141 242.016C390.877 242.997 391.245 244.427 391.245 246.304C391.245 247.552 391.079 248.613 390.749 249.488C390.418 250.363 389.933 251.029 389.293 251.488C388.653 251.947 387.869 252.176 386.941 252.176ZM386.941 249.84C387.453 249.84 387.831 249.563 388.077 249.008C388.333 248.443 388.461 247.541 388.461 246.304C388.461 245.077 388.333 244.203 388.077 243.68C387.831 243.147 387.453 242.88 386.941 242.88C386.429 242.88 386.045 243.147 385.789 243.68C385.543 244.203 385.421 245.077 385.421 246.304C385.421 247.541 385.543 248.443 385.789 249.008C386.045 249.563 386.429 249.84 386.941 249.84Z" fill="#393939"/>
<path d="M211.304 240.126C211.064 240.126 210.878 240.06 210.746 239.928C210.626 239.784 210.566 239.592 210.566 239.352V228.066C210.566 227.814 210.632 227.628 210.764 227.508C210.896 227.376 211.082 227.31 211.322 227.31H215.588C216.944 227.31 217.988 227.628 218.72 228.264C219.452 228.9 219.818 229.806 219.818 230.982C219.818 231.726 219.65 232.374 219.314 232.926C218.99 233.466 218.51 233.88 217.874 234.168C217.238 234.444 216.476 234.582 215.588 234.582L215.768 234.348H216.128C216.596 234.348 217.004 234.468 217.352 234.708C217.7 234.948 218.018 235.332 218.306 235.86L220.034 239.082C220.13 239.25 220.172 239.418 220.16 239.586C220.16 239.742 220.106 239.874 219.998 239.982C219.89 240.078 219.734 240.126 219.53 240.126C219.326 240.126 219.158 240.078 219.026 239.982C218.894 239.886 218.78 239.748 218.684 239.568L216.722 235.932C216.446 235.416 216.128 235.074 215.768 234.906C215.408 234.726 214.934 234.636 214.346 234.636H212.042V239.352C212.042 239.592 211.982 239.784 211.862 239.928C211.742 240.06 211.556 240.126 211.304 240.126ZM212.042 233.466H215.372C216.356 233.466 217.1 233.262 217.604 232.854C218.108 232.434 218.36 231.81 218.36 230.982C218.36 230.178 218.108 229.572 217.604 229.164C217.1 228.744 216.356 228.534 215.372 228.534H212.042V233.466ZM223.417 240C223.153 240 222.949 239.934 222.805 239.802C222.673 239.658 222.607 239.454 222.607 239.19V228.12C222.607 227.856 222.673 227.658 222.805 227.526C222.949 227.382 223.153 227.31 223.417 227.31H230.113C230.317 227.31 230.473 227.364 230.581 227.472C230.689 227.58 230.743 227.73 230.743 227.922C230.743 228.126 230.689 228.282 230.581 228.39C230.473 228.498 230.317 228.552 230.113 228.552H224.047V232.944H229.735C229.939 232.944 230.095 232.998 230.203 233.106C230.311 233.202 230.365 233.352 230.365 233.556C230.365 233.76 230.311 233.916 230.203 234.024C230.095 234.132 229.939 234.186 229.735 234.186H224.047V238.758H230.113C230.317 238.758 230.473 238.812 230.581 238.92C230.689 239.028 230.743 239.178 230.743 239.37C230.743 239.574 230.689 239.73 230.581 239.838C230.473 239.946 230.317 240 230.113 240H223.417ZM238.538 240.162C237.29 240.162 236.222 239.898 235.334 239.37C234.446 238.842 233.762 238.092 233.282 237.12C232.814 236.148 232.58 234.99 232.58 233.646C232.58 232.638 232.712 231.738 232.976 230.946C233.252 230.142 233.642 229.464 234.146 228.912C234.662 228.348 235.292 227.916 236.036 227.616C236.78 227.304 237.614 227.148 238.538 227.148C239.282 227.148 239.99 227.256 240.662 227.472C241.334 227.676 241.916 227.982 242.408 228.39C242.564 228.51 242.666 228.648 242.714 228.804C242.774 228.948 242.78 229.092 242.732 229.236C242.696 229.368 242.624 229.482 242.516 229.578C242.42 229.662 242.3 229.704 242.156 229.704C242.012 229.704 241.85 229.644 241.67 229.524C241.238 229.176 240.764 228.918 240.248 228.75C239.732 228.582 239.174 228.498 238.574 228.498C237.626 228.498 236.822 228.702 236.162 229.11C235.502 229.506 235.004 230.088 234.668 230.856C234.332 231.624 234.164 232.554 234.164 233.646C234.164 234.738 234.332 235.674 234.668 236.454C235.004 237.222 235.502 237.81 236.162 238.218C236.822 238.614 237.626 238.812 238.574 238.812C239.162 238.812 239.72 238.728 240.248 238.56C240.776 238.38 241.262 238.116 241.706 237.768C241.886 237.648 242.048 237.594 242.192 237.606C242.336 237.606 242.456 237.648 242.552 237.732C242.648 237.816 242.714 237.924 242.75 238.056C242.798 238.188 242.798 238.326 242.75 238.47C242.714 238.614 242.624 238.74 242.48 238.848C241.976 239.28 241.382 239.61 240.698 239.838C240.026 240.054 239.306 240.162 238.538 240.162ZM245.97 240C245.706 240 245.502 239.934 245.358 239.802C245.226 239.658 245.16 239.454 245.16 239.19V228.12C245.16 227.856 245.226 227.658 245.358 227.526C245.502 227.382 245.706 227.31 245.97 227.31H252.666C252.87 227.31 253.026 227.364 253.134 227.472C253.242 227.58 253.296 227.73 253.296 227.922C253.296 228.126 253.242 228.282 253.134 228.39C253.026 228.498 252.87 228.552 252.666 228.552H246.6V232.944H252.288C252.492 232.944 252.648 232.998 252.756 233.106C252.864 233.202 252.918 233.352 252.918 233.556C252.918 233.76 252.864 233.916 252.756 234.024C252.648 234.132 252.492 234.186 252.288 234.186H246.6V238.758H252.666C252.87 238.758 253.026 238.812 253.134 238.92C253.242 239.028 253.296 239.178 253.296 239.37C253.296 239.574 253.242 239.73 253.134 239.838C253.026 239.946 252.87 240 252.666 240H245.97ZM256.392 240.126C256.152 240.126 255.966 240.06 255.834 239.928C255.714 239.784 255.654 239.592 255.654 239.352V228.066C255.654 227.814 255.72 227.628 255.852 227.508C255.984 227.376 256.17 227.31 256.41 227.31H260.676C262.032 227.31 263.076 227.646 263.808 228.318C264.54 228.978 264.906 229.914 264.906 231.126C264.906 232.326 264.54 233.262 263.808 233.934C263.076 234.606 262.032 234.942 260.676 234.942H257.13V239.352C257.13 239.592 257.07 239.784 256.95 239.928C256.83 240.06 256.644 240.126 256.392 240.126ZM257.13 233.7H260.496C261.468 233.7 262.2 233.484 262.692 233.052C263.196 232.608 263.448 231.966 263.448 231.126C263.448 230.274 263.196 229.632 262.692 229.2C262.2 228.756 261.468 228.534 260.496 228.534H257.13V233.7ZM272.394 240.162C271.146 240.162 270.078 239.898 269.19 239.37C268.302 238.842 267.618 238.092 267.138 237.12C266.67 236.148 266.436 234.99 266.436 233.646C266.436 232.638 266.568 231.738 266.832 230.946C267.108 230.142 267.498 229.464 268.002 228.912C268.518 228.348 269.148 227.916 269.892 227.616C270.636 227.304 271.47 227.148 272.394 227.148C273.138 227.148 273.846 227.256 274.518 227.472C275.19 227.676 275.772 227.982 276.264 228.39C276.42 228.51 276.522 228.648 276.57 228.804C276.63 228.948 276.636 229.092 276.588 229.236C276.552 229.368 276.48 229.482 276.372 229.578C276.276 229.662 276.156 229.704 276.012 229.704C275.868 229.704 275.706 229.644 275.526 229.524C275.094 229.176 274.62 228.918 274.104 228.75C273.588 228.582 273.03 228.498 272.43 228.498C271.482 228.498 270.678 228.702 270.018 229.11C269.358 229.506 268.86 230.088 268.524 230.856C268.188 231.624 268.02 232.554 268.02 233.646C268.02 234.738 268.188 235.674 268.524 236.454C268.86 237.222 269.358 237.81 270.018 238.218C270.678 238.614 271.482 238.812 272.43 238.812C273.018 238.812 273.576 238.728 274.104 238.56C274.632 238.38 275.118 238.116 275.562 237.768C275.742 237.648 275.904 237.594 276.048 237.606C276.192 237.606 276.312 237.648 276.408 237.732C276.504 237.816 276.57 237.924 276.606 238.056C276.654 238.188 276.654 238.326 276.606 238.47C276.57 238.614 276.48 238.74 276.336 238.848C275.832 239.28 275.238 239.61 274.554 239.838C273.882 240.054 273.162 240.162 272.394 240.162ZM279.753 240.126C279.513 240.126 279.327 240.06 279.195 239.928C279.075 239.784 279.015 239.592 279.015 239.352V227.958C279.015 227.706 279.075 227.514 279.195 227.382C279.327 227.25 279.513 227.184 279.753 227.184C279.993 227.184 280.173 227.25 280.293 227.382C280.425 227.514 280.491 227.706 280.491 227.958V239.352C280.491 239.592 280.431 239.784 280.311 239.928C280.191 240.06 280.005 240.126 279.753 240.126ZM288.966 240.162C287.79 240.162 286.764 239.898 285.888 239.37C285.024 238.83 284.352 238.074 283.872 237.102C283.404 236.13 283.17 234.978 283.17 233.646C283.17 232.638 283.302 231.738 283.566 230.946C283.842 230.142 284.232 229.464 284.736 228.912C285.24 228.348 285.846 227.916 286.554 227.616C287.274 227.304 288.078 227.148 288.966 227.148C290.166 227.148 291.198 227.412 292.062 227.94C292.938 228.468 293.61 229.218 294.078 230.19C294.558 231.15 294.798 232.296 294.798 233.628C294.798 234.636 294.66 235.542 294.384 236.346C294.108 237.15 293.718 237.834 293.214 238.398C292.71 238.962 292.098 239.4 291.378 239.712C290.67 240.012 289.866 240.162 288.966 240.162ZM288.966 238.848C289.878 238.848 290.646 238.644 291.27 238.236C291.906 237.828 292.392 237.234 292.728 236.454C293.064 235.674 293.232 234.738 293.232 233.646C293.232 232.002 292.86 230.73 292.116 229.83C291.384 228.918 290.334 228.462 288.966 228.462C288.078 228.462 287.316 228.666 286.68 229.074C286.056 229.482 285.576 230.076 285.24 230.856C284.904 231.624 284.736 232.554 284.736 233.646C284.736 235.278 285.108 236.556 285.852 237.48C286.596 238.392 287.634 238.848 288.966 238.848ZM298.139 240.126C297.911 240.126 297.737 240.066 297.617 239.946C297.497 239.814 297.437 239.628 297.437 239.388V227.94C297.437 227.7 297.497 227.514 297.617 227.382C297.737 227.25 297.893 227.184 298.085 227.184C298.277 227.184 298.415 227.22 298.499 227.292C298.595 227.352 298.703 227.466 298.823 227.634L306.671 238.092H306.239V227.904C306.239 227.676 306.299 227.502 306.419 227.382C306.539 227.25 306.713 227.184 306.941 227.184C307.157 227.184 307.319 227.25 307.427 227.382C307.547 227.502 307.607 227.676 307.607 227.904V239.406C307.607 239.634 307.553 239.814 307.445 239.946C307.349 240.066 307.205 240.126 307.013 240.126C306.833 240.126 306.689 240.09 306.581 240.018C306.473 239.946 306.359 239.832 306.239 239.676L298.409 229.218H298.823V239.388C298.823 239.628 298.763 239.814 298.643 239.946C298.523 240.066 298.355 240.126 298.139 240.126Z" fill="#393939"/>
<line x1="204" y1="246.5" x2="330" y2="246.5" stroke="#313131" stroke-dasharray="2 2"/>
<path d="M19.512 341C19.1173 341 18.8133 340.899 18.6 340.696C18.3973 340.483 18.296 340.184 18.296 339.8C18.296 339.416 18.3973 339.123 18.6 338.92C18.8133 338.717 19.1173 338.616 19.512 338.616H20.952V332.072H22.296L19.976 333.496C19.6987 333.667 19.4373 333.736 19.192 333.704C18.9467 333.661 18.7387 333.555 18.568 333.384C18.3973 333.213 18.2853 333.005 18.232 332.76C18.1787 332.515 18.2 332.269 18.296 332.024C18.392 331.779 18.584 331.571 18.872 331.4L21.08 330.024C21.3147 329.875 21.5547 329.763 21.8 329.688C22.056 329.613 22.3227 329.576 22.6 329.576C23.0053 329.576 23.32 329.683 23.544 329.896C23.768 330.099 23.88 330.397 23.88 330.792V338.616H25.16C25.5547 338.616 25.8533 338.717 26.056 338.92C26.2693 339.123 26.376 339.416 26.376 339.8C26.376 340.184 26.2693 340.483 26.056 340.696C25.8533 340.899 25.5547 341 25.16 341H19.512ZM30.4018 341.176C29.9644 341.176 29.5218 341.123 29.0738 341.016C28.6258 340.909 28.1991 340.749 27.7938 340.536C27.5378 340.408 27.3618 340.237 27.2658 340.024C27.1698 339.8 27.1324 339.571 27.1538 339.336C27.1858 339.091 27.2711 338.877 27.4098 338.696C27.5484 338.504 27.7298 338.371 27.9538 338.296C28.1884 338.221 28.4498 338.248 28.7378 338.376C29.0578 338.525 29.3564 338.627 29.6338 338.68C29.9111 338.733 30.1778 338.76 30.4338 338.76C30.9671 338.76 31.4098 338.653 31.7618 338.44C32.1244 338.216 32.3911 337.885 32.5618 337.448C32.7431 337 32.8338 336.445 32.8338 335.784V334.952H33.0738C32.9884 335.4 32.8124 335.789 32.5458 336.12C32.2898 336.451 31.9698 336.701 31.5858 336.872C31.2124 337.043 30.7911 337.128 30.3218 337.128C29.7031 337.128 29.1431 336.973 28.6418 336.664C28.1511 336.344 27.7618 335.907 27.4738 335.352C27.1858 334.787 27.0418 334.157 27.0418 333.464C27.0418 332.696 27.2071 332.019 27.5378 331.432C27.8684 330.845 28.3271 330.387 28.9138 330.056C29.5111 329.715 30.1884 329.544 30.9458 329.544C31.9378 329.544 32.7751 329.768 33.4578 330.216C34.1511 330.664 34.6791 331.315 35.0417 332.168C35.4044 333.011 35.5858 334.04 35.5858 335.256C35.5858 336.184 35.4684 337.016 35.2338 337.752C34.9991 338.488 34.6578 339.112 34.2098 339.624C33.7618 340.125 33.2178 340.509 32.5778 340.776C31.9378 341.043 31.2124 341.176 30.4018 341.176ZM31.1058 334.888C31.3831 334.888 31.6231 334.824 31.8258 334.696C32.0391 334.557 32.1991 334.376 32.3058 334.152C32.4231 333.917 32.4818 333.645 32.4818 333.336C32.4818 333.016 32.4231 332.739 32.3058 332.504C32.1991 332.269 32.0391 332.093 31.8258 331.976C31.6231 331.848 31.3831 331.784 31.1058 331.784C30.8284 331.784 30.5884 331.848 30.3858 331.976C30.1831 332.093 30.0231 332.269 29.9058 332.504C29.7884 332.739 29.7298 333.016 29.7298 333.336C29.7298 333.645 29.7884 333.917 29.9058 334.152C30.0231 334.376 30.1831 334.557 30.3858 334.696C30.5884 334.824 30.8284 334.888 31.1058 334.888ZM38.3635 341.096C37.8835 341.096 37.4995 340.952 37.2115 340.664C36.9342 340.376 36.7955 339.997 36.7955 339.528C36.7955 339.069 36.9342 338.701 37.2115 338.424C37.4995 338.136 37.8835 337.992 38.3635 337.992C38.8648 337.992 39.2488 338.136 39.5155 338.424C39.7928 338.701 39.9315 339.069 39.9315 339.528C39.9315 339.997 39.7928 340.376 39.5155 340.664C39.2488 340.952 38.8648 341.096 38.3635 341.096ZM38.3635 336.136C37.8835 336.136 37.4995 335.992 37.2115 335.704C36.9342 335.405 36.7955 335.032 36.7955 334.584C36.7955 334.115 36.9342 333.741 37.2115 333.464C37.4995 333.176 37.8835 333.032 38.3635 333.032C38.8648 333.032 39.2488 333.176 39.5155 333.464C39.7928 333.741 39.9315 334.115 39.9315 334.584C39.9315 335.032 39.7928 335.405 39.5155 335.704C39.2488 335.992 38.8648 336.136 38.3635 336.136ZM43.0589 341C42.6642 341 42.3602 340.899 42.1469 340.696C41.9442 340.483 41.8429 340.184 41.8429 339.8C41.8429 339.416 41.9442 339.123 42.1469 338.92C42.3602 338.717 42.6642 338.616 43.0589 338.616H44.4989V332.072H45.8429L43.5229 333.496C43.2455 333.667 42.9842 333.736 42.7389 333.704C42.4935 333.661 42.2855 333.555 42.1149 333.384C41.9442 333.213 41.8322 333.005 41.7789 332.76C41.7255 332.515 41.7469 332.269 41.8429 332.024C41.9389 331.779 42.1309 331.571 42.4189 331.4L44.6269 330.024C44.8615 329.875 45.1015 329.763 45.3469 329.688C45.6029 329.613 45.8695 329.576 46.1469 329.576C46.5522 329.576 46.8669 329.683 47.0909 329.896C47.3149 330.099 47.4269 330.397 47.4269 330.792V338.616H48.7069C49.1015 338.616 49.4002 338.717 49.6029 338.92C49.8162 339.123 49.9229 339.416 49.9229 339.8C49.9229 340.184 49.8162 340.483 49.6029 340.696C49.4002 340.899 49.1015 341 48.7069 341H43.0589ZM54.8606 341.176C54.3486 341.176 53.81 341.117 53.2446 341C52.6793 340.883 52.1566 340.701 51.6766 340.456C51.3886 340.307 51.186 340.115 51.0686 339.88C50.962 339.635 50.9246 339.389 50.9566 339.144C50.9993 338.899 51.0953 338.68 51.2446 338.488C51.4046 338.296 51.602 338.173 51.8366 338.12C52.082 338.056 52.3486 338.099 52.6366 338.248C52.9886 338.419 53.3513 338.547 53.7246 338.632C54.1086 338.717 54.466 338.76 54.7966 338.76C55.1593 338.76 55.4686 338.707 55.7246 338.6C55.9806 338.493 56.1726 338.339 56.3006 338.136C56.4393 337.933 56.5086 337.693 56.5086 337.416C56.5086 336.989 56.3646 336.653 56.0766 336.408C55.7886 336.163 55.4046 336.04 54.9246 336.04C54.7113 336.04 54.4766 336.072 54.2206 336.136C53.9753 336.2 53.7193 336.323 53.4526 336.504C53.3353 336.568 53.1753 336.643 52.9726 336.728C52.77 336.803 52.562 336.84 52.3486 336.84C51.9646 336.84 51.682 336.749 51.5006 336.568C51.3193 336.387 51.2286 336.131 51.2286 335.8V330.968C51.2286 330.563 51.3353 330.253 51.5486 330.04C51.7726 329.827 52.082 329.72 52.4766 329.72H57.5006C57.8953 329.72 58.1993 329.821 58.4126 330.024C58.626 330.227 58.7326 330.525 58.7326 330.92C58.7326 331.304 58.626 331.597 58.4126 331.8C58.1993 332.003 57.8953 332.104 57.5006 332.104H53.9966V334.616H53.3246C53.5806 334.317 53.9166 334.093 54.3326 333.944C54.7486 333.784 55.202 333.704 55.6926 333.704C56.4073 333.704 57.0366 333.859 57.5806 334.168C58.1246 334.467 58.546 334.888 58.8446 335.432C59.154 335.976 59.3086 336.611 59.3086 337.336C59.3086 338.104 59.1273 338.781 58.7646 339.368C58.4126 339.944 57.9006 340.392 57.2286 340.712C56.5673 341.021 55.778 341.176 54.8606 341.176Z" fill="#393939"/>
<path d="M158.056 329.162C156.808 329.162 155.74 328.898 154.852 328.37C153.964 327.842 153.28 327.092 152.8 326.12C152.332 325.148 152.098 323.99 152.098 322.646C152.098 321.638 152.23 320.738 152.494 319.946C152.77 319.142 153.16 318.464 153.664 317.912C154.18 317.348 154.81 316.916 155.554 316.616C156.298 316.304 157.132 316.148 158.056 316.148C158.8 316.148 159.508 316.256 160.18 316.472C160.852 316.676 161.434 316.982 161.926 317.39C162.082 317.51 162.184 317.648 162.232 317.804C162.292 317.948 162.298 318.092 162.25 318.236C162.214 318.368 162.142 318.482 162.034 318.578C161.938 318.662 161.818 318.704 161.674 318.704C161.53 318.704 161.368 318.644 161.188 318.524C160.756 318.176 160.282 317.918 159.766 317.75C159.25 317.582 158.692 317.498 158.092 317.498C157.144 317.498 156.34 317.702 155.68 318.11C155.02 318.506 154.522 319.088 154.186 319.856C153.85 320.624 153.682 321.554 153.682 322.646C153.682 323.738 153.85 324.674 154.186 325.454C154.522 326.222 155.02 326.81 155.68 327.218C156.34 327.614 157.144 327.812 158.092 327.812C158.68 327.812 159.238 327.728 159.766 327.56C160.294 327.38 160.78 327.116 161.224 326.768C161.404 326.648 161.566 326.594 161.71 326.606C161.854 326.606 161.974 326.648 162.07 326.732C162.166 326.816 162.232 326.924 162.268 327.056C162.316 327.188 162.316 327.326 162.268 327.47C162.232 327.614 162.142 327.74 161.998 327.848C161.494 328.28 160.9 328.61 160.216 328.838C159.544 329.054 158.824 329.162 158.056 329.162ZM165.487 329C165.223 329 165.019 328.934 164.875 328.802C164.743 328.658 164.677 328.454 164.677 328.19V317.12C164.677 316.856 164.743 316.658 164.875 316.526C165.019 316.382 165.223 316.31 165.487 316.31H172.183C172.387 316.31 172.543 316.364 172.651 316.472C172.759 316.58 172.813 316.73 172.813 316.922C172.813 317.126 172.759 317.282 172.651 317.39C172.543 317.498 172.387 317.552 172.183 317.552H166.117V321.944H171.805C172.009 321.944 172.165 321.998 172.273 322.106C172.381 322.202 172.435 322.352 172.435 322.556C172.435 322.76 172.381 322.916 172.273 323.024C172.165 323.132 172.009 323.186 171.805 323.186H166.117V327.758H172.183C172.387 327.758 172.543 327.812 172.651 327.92C172.759 328.028 172.813 328.178 172.813 328.37C172.813 328.574 172.759 328.73 172.651 328.838C172.543 328.946 172.387 329 172.183 329H165.487ZM175.873 329.126C175.645 329.126 175.471 329.066 175.351 328.946C175.231 328.814 175.171 328.628 175.171 328.388V316.94C175.171 316.7 175.231 316.514 175.351 316.382C175.471 316.25 175.627 316.184 175.819 316.184C176.011 316.184 176.149 316.22 176.233 316.292C176.329 316.352 176.437 316.466 176.557 316.634L184.405 327.092H183.973V316.904C183.973 316.676 184.033 316.502 184.153 316.382C184.273 316.25 184.447 316.184 184.675 316.184C184.891 316.184 185.053 316.25 185.161 316.382C185.281 316.502 185.341 316.676 185.341 316.904V328.406C185.341 328.634 185.287 328.814 185.179 328.946C185.083 329.066 184.939 329.126 184.747 329.126C184.567 329.126 184.423 329.09 184.315 329.018C184.207 328.946 184.093 328.832 183.973 328.676L176.143 318.218H176.557V328.388C176.557 328.628 176.497 328.814 176.377 328.946C176.257 329.066 176.089 329.126 175.873 329.126ZM188.226 329.126C188.034 329.126 187.878 329.084 187.758 329C187.65 328.904 187.584 328.784 187.56 328.64C187.548 328.484 187.584 328.31 187.668 328.118L192.618 316.85C192.726 316.61 192.852 316.442 192.996 316.346C193.152 316.238 193.32 316.184 193.5 316.184C193.68 316.184 193.842 316.238 193.986 316.346C194.142 316.442 194.268 316.61 194.364 316.85L199.332 328.118C199.428 328.31 199.464 328.484 199.44 328.64C199.428 328.796 199.368 328.916 199.26 329C199.152 329.084 199.002 329.126 198.81 329.126C198.594 329.126 198.42 329.072 198.288 328.964C198.156 328.844 198.048 328.676 197.964 328.46L196.632 325.382L197.352 325.76H189.612L190.35 325.382L189.036 328.46C188.928 328.688 188.814 328.856 188.694 328.964C188.574 329.072 188.418 329.126 188.226 329.126ZM193.482 318.038L190.584 324.86L190.152 324.518H196.812L196.416 324.86L193.518 318.038H193.482Z" fill="#393939"/>
<line x1="77" y1="336.5" x2="203" y2="336.5" stroke="#313131" stroke-dasharray="2 2"/>
<path d="M348.304 430C347.835 430 347.493 429.893 347.28 429.68C347.077 429.456 346.976 429.131 346.976 428.704C346.976 428.405 347.04 428.139 347.168 427.904C347.307 427.669 347.483 427.44 347.696 427.216L350.496 424.288C350.912 423.84 351.205 423.456 351.376 423.136C351.557 422.816 351.648 422.496 351.648 422.176C351.648 421.771 351.515 421.467 351.248 421.264C350.981 421.061 350.597 420.96 350.096 420.96C349.84 420.96 349.568 420.997 349.28 421.072C348.992 421.136 348.683 421.253 348.352 421.424C348.064 421.552 347.803 421.589 347.568 421.536C347.344 421.483 347.152 421.365 346.992 421.184C346.843 421.003 346.747 420.795 346.704 420.56C346.672 420.325 346.709 420.096 346.816 419.872C346.923 419.637 347.115 419.445 347.392 419.296C347.883 419.029 348.389 418.837 348.912 418.72C349.445 418.603 349.979 418.544 350.512 418.544C351.387 418.544 352.117 418.672 352.704 418.928C353.301 419.184 353.755 419.557 354.064 420.048C354.373 420.528 354.528 421.125 354.528 421.84C354.528 422.288 354.459 422.725 354.32 423.152C354.192 423.579 353.979 424.005 353.68 424.432C353.392 424.859 353.003 425.312 352.512 425.792L349.92 428.352V427.616H353.872C354.267 427.616 354.565 427.717 354.768 427.92C354.981 428.123 355.088 428.416 355.088 428.8C355.088 429.184 354.981 429.483 354.768 429.696C354.565 429.899 354.267 430 353.872 430H348.304ZM358.106 430C357.711 430 357.407 429.899 357.194 429.696C356.991 429.483 356.89 429.184 356.89 428.8C356.89 428.416 356.991 428.123 357.194 427.92C357.407 427.717 357.711 427.616 358.106 427.616H359.546V421.072H360.89L358.57 422.496C358.292 422.667 358.031 422.736 357.786 422.704C357.54 422.661 357.332 422.555 357.162 422.384C356.991 422.213 356.879 422.005 356.826 421.76C356.772 421.515 356.794 421.269 356.89 421.024C356.986 420.779 357.178 420.571 357.466 420.4L359.674 419.024C359.908 418.875 360.148 418.763 360.394 418.688C360.65 418.613 360.916 418.576 361.194 418.576C361.599 418.576 361.914 418.683 362.138 418.896C362.362 419.099 362.474 419.397 362.474 419.792V427.616H363.754C364.148 427.616 364.447 427.717 364.65 427.92C364.863 428.123 364.97 428.416 364.97 428.8C364.97 429.184 364.863 429.483 364.65 429.696C364.447 429.899 364.148 430 363.754 430H358.106ZM367.364 430.096C366.884 430.096 366.5 429.952 366.212 429.664C365.934 429.376 365.796 428.997 365.796 428.528C365.796 428.069 365.934 427.701 366.212 427.424C366.5 427.136 366.884 426.992 367.364 426.992C367.865 426.992 368.249 427.136 368.516 427.424C368.793 427.701 368.932 428.069 368.932 428.528C368.932 428.997 368.793 429.376 368.516 429.664C368.249 429.952 367.865 430.096 367.364 430.096ZM367.364 425.136C366.884 425.136 366.5 424.992 366.212 424.704C365.934 424.405 365.796 424.032 365.796 423.584C365.796 423.115 365.934 422.741 366.212 422.464C366.5 422.176 366.884 422.032 367.364 422.032C367.865 422.032 368.249 422.176 368.516 422.464C368.793 422.741 368.932 423.115 368.932 423.584C368.932 424.032 368.793 424.405 368.516 424.704C368.249 424.992 367.865 425.136 367.364 425.136ZM374.347 430.176C372.96 430.176 371.894 429.669 371.147 428.656C370.411 427.632 370.043 426.187 370.043 424.32C370.043 423.061 370.208 422.005 370.539 421.152C370.87 420.288 371.355 419.637 371.995 419.2C372.635 418.763 373.419 418.544 374.347 418.544C375.744 418.544 376.811 419.035 377.547 420.016C378.283 420.997 378.651 422.427 378.651 424.304C378.651 425.552 378.486 426.613 378.155 427.488C377.824 428.363 377.339 429.029 376.699 429.488C376.059 429.947 375.275 430.176 374.347 430.176ZM374.347 427.84C374.859 427.84 375.238 427.563 375.483 427.008C375.739 426.443 375.867 425.541 375.867 424.304C375.867 423.077 375.739 422.203 375.483 421.68C375.238 421.147 374.859 420.88 374.347 420.88C373.835 420.88 373.451 421.147 373.195 421.68C372.95 422.203 372.827 423.077 372.827 424.304C372.827 425.541 372.95 426.443 373.195 427.008C373.451 427.563 373.835 427.84 374.347 427.84ZM383.941 430.176C382.554 430.176 381.487 429.669 380.741 428.656C380.005 427.632 379.637 426.187 379.637 424.32C379.637 423.061 379.802 422.005 380.133 421.152C380.463 420.288 380.949 419.637 381.589 419.2C382.229 418.763 383.013 418.544 383.941 418.544C385.338 418.544 386.405 419.035 387.141 420.016C387.877 420.997 388.245 422.427 388.245 424.304C388.245 425.552 388.079 426.613 387.749 427.488C387.418 428.363 386.933 429.029 386.293 429.488C385.653 429.947 384.869 430.176 383.941 430.176ZM383.941 427.84C384.453 427.84 384.831 427.563 385.077 427.008C385.333 426.443 385.461 425.541 385.461 424.304C385.461 423.077 385.333 422.203 385.077 421.68C384.831 421.147 384.453 420.88 383.941 420.88C383.429 420.88 383.045 421.147 382.789 421.68C382.543 422.203 382.421 423.077 382.421 424.304C382.421 425.541 382.543 426.443 382.789 427.008C383.045 427.563 383.429 427.84 383.941 427.84Z" fill="#393939"/>
<path d="M208.358 418.126C208.106 418.126 207.908 418.06 207.764 417.928C207.632 417.784 207.566 417.58 207.566 417.316V406.12C207.566 405.856 207.632 405.658 207.764 405.526C207.908 405.382 208.112 405.31 208.376 405.31H214.91C215.114 405.31 215.27 405.364 215.378 405.472C215.486 405.58 215.54 405.73 215.54 405.922C215.54 406.126 215.486 406.282 215.378 406.39C215.27 406.498 215.114 406.552 214.91 406.552H209.042V410.98H214.532C214.736 410.98 214.892 411.034 215 411.142C215.12 411.25 215.18 411.4 215.18 411.592C215.18 411.796 215.12 411.952 215 412.06C214.892 412.168 214.736 412.222 214.532 412.222H209.042V417.316C209.042 417.856 208.814 418.126 208.358 418.126ZM218.165 418.126C217.925 418.126 217.739 418.06 217.607 417.928C217.487 417.784 217.427 417.592 217.427 417.352V405.958C217.427 405.706 217.487 405.514 217.607 405.382C217.739 405.25 217.925 405.184 218.165 405.184C218.405 405.184 218.585 405.25 218.705 405.382C218.837 405.514 218.903 405.706 218.903 405.958V417.352C218.903 417.592 218.843 417.784 218.723 417.928C218.603 418.06 218.417 418.126 218.165 418.126ZM222.86 418C222.596 418 222.392 417.934 222.248 417.802C222.116 417.658 222.05 417.454 222.05 417.19V406.12C222.05 405.856 222.116 405.658 222.248 405.526C222.392 405.382 222.596 405.31 222.86 405.31H229.556C229.76 405.31 229.916 405.364 230.024 405.472C230.132 405.58 230.186 405.73 230.186 405.922C230.186 406.126 230.132 406.282 230.024 406.39C229.916 406.498 229.76 406.552 229.556 406.552H223.49V410.944H229.178C229.382 410.944 229.538 410.998 229.646 411.106C229.754 411.202 229.808 411.352 229.808 411.556C229.808 411.76 229.754 411.916 229.646 412.024C229.538 412.132 229.382 412.186 229.178 412.186H223.49V416.758H229.556C229.76 416.758 229.916 416.812 230.024 416.92C230.132 417.028 230.186 417.178 230.186 417.37C230.186 417.574 230.132 417.73 230.024 417.838C229.916 417.946 229.76 418 229.556 418H222.86ZM236.473 418.162C235.909 418.162 235.357 418.114 234.817 418.018C234.277 417.922 233.773 417.784 233.305 417.604C232.849 417.424 232.435 417.196 232.063 416.92C231.919 416.812 231.817 416.692 231.757 416.56C231.709 416.416 231.697 416.278 231.721 416.146C231.757 416.002 231.817 415.882 231.901 415.786C231.997 415.69 232.111 415.636 232.243 415.624C232.375 415.612 232.519 415.654 232.675 415.75C233.215 416.134 233.791 416.416 234.403 416.596C235.015 416.764 235.705 416.848 236.473 416.848C237.553 416.848 238.351 416.65 238.867 416.254C239.395 415.846 239.659 415.312 239.659 414.652C239.659 414.112 239.467 413.692 239.083 413.392C238.711 413.08 238.081 412.834 237.193 412.654L235.321 412.276C234.193 412.036 233.347 411.646 232.783 411.106C232.231 410.554 231.955 409.822 231.955 408.91C231.955 408.346 232.069 407.836 232.297 407.38C232.525 406.912 232.843 406.516 233.251 406.192C233.659 405.856 234.145 405.598 234.709 405.418C235.273 405.238 235.897 405.148 236.581 405.148C237.337 405.148 238.039 405.256 238.687 405.472C239.347 405.676 239.941 405.988 240.469 406.408C240.601 406.516 240.691 406.642 240.739 406.786C240.787 406.918 240.793 407.05 240.757 407.182C240.721 407.302 240.655 407.404 240.559 407.488C240.475 407.572 240.361 407.62 240.217 407.632C240.085 407.644 239.935 407.596 239.767 407.488C239.287 407.128 238.789 406.87 238.273 406.714C237.757 406.546 237.187 406.462 236.563 406.462C235.927 406.462 235.375 406.558 234.907 406.75C234.451 406.942 234.091 407.224 233.827 407.596C233.575 407.956 233.449 408.376 233.449 408.856C233.449 409.432 233.623 409.888 233.971 410.224C234.331 410.56 234.913 410.806 235.717 410.962L237.589 411.358C238.801 411.61 239.695 411.994 240.271 412.51C240.859 413.014 241.153 413.704 241.153 414.58C241.153 415.108 241.045 415.594 240.829 416.038C240.613 416.482 240.301 416.866 239.893 417.19C239.485 417.502 238.993 417.742 238.417 417.91C237.841 418.078 237.193 418.162 236.473 418.162ZM247.031 418.126C246.803 418.126 246.623 418.06 246.491 417.928C246.359 417.784 246.293 417.592 246.293 417.352V406.588H242.243C242.027 406.588 241.859 406.528 241.739 406.408C241.619 406.288 241.559 406.132 241.559 405.94C241.559 405.736 241.619 405.58 241.739 405.472C241.859 405.364 242.027 405.31 242.243 405.31H251.837C252.053 405.31 252.221 405.364 252.341 405.472C252.461 405.58 252.521 405.736 252.521 405.94C252.521 406.144 252.461 406.306 252.341 406.426C252.221 406.534 252.053 406.588 251.837 406.588H247.787V417.352C247.787 417.592 247.721 417.784 247.589 417.928C247.469 418.06 247.283 418.126 247.031 418.126ZM252.366 418.126C252.174 418.126 252.018 418.084 251.898 418C251.79 417.904 251.724 417.784 251.7 417.64C251.688 417.484 251.724 417.31 251.808 417.118L256.758 405.85C256.866 405.61 256.992 405.442 257.136 405.346C257.292 405.238 257.46 405.184 257.64 405.184C257.82 405.184 257.982 405.238 258.126 405.346C258.282 405.442 258.408 405.61 258.504 405.85L263.472 417.118C263.568 417.31 263.604 417.484 263.58 417.64C263.568 417.796 263.508 417.916 263.4 418C263.292 418.084 263.142 418.126 262.95 418.126C262.734 418.126 262.56 418.072 262.428 417.964C262.296 417.844 262.188 417.676 262.104 417.46L260.772 414.382L261.492 414.76H253.752L254.49 414.382L253.176 417.46C253.068 417.688 252.954 417.856 252.834 417.964C252.714 418.072 252.558 418.126 252.366 418.126ZM257.622 407.038L254.724 413.86L254.292 413.518H260.952L260.556 413.86L257.658 407.038H257.622Z" fill="#393939"/>
<line x1="201" y1="424.5" x2="327" y2="424.5" stroke="#313131" stroke-dasharray="2 2"/>
</svg>
