<svg width="178" height="49" viewBox="0 0 178 49" fill="none" xmlns="http://www.w3.org/2000/svg">
<path d="M26.2747 1.392C24.4973 2.41867 23.176 3.77867 22.58 5.04401C21.9827 3.77867 20.6627 2.41867 18.8853 1.392C17.2853 0.467999 15.6387 3.39429e-07 14.308 3.39429e-07C13.1293 3.39429e-07 12.2 0.368 11.7707 1.112C10.8547 2.69733 12.556 5.39333 15.5707 7.13333C16.068 7.42133 16.5707 7.66267 17.0667 7.86134H0V38.236H11.288V23.0507C11.288 20.2533 13.816 17.9867 16.9333 17.9867C20.052 17.9867 22.58 20.2533 22.58 23.0507V28.112H28.224C31.3413 28.112 33.8693 30.38 33.8693 33.1747C33.8693 35.972 31.3413 38.236 28.224 38.236H11.288V48.3613H45.16V7.86134H28.0933C28.5893 7.66267 29.0907 7.42133 29.5893 7.13333C32.604 5.39333 34.3053 2.69733 33.3893 1.112C32.96 0.368 32.028 3.39429e-07 30.8507 3.39429e-07C29.52 3.39429e-07 27.8733 0.467999 26.2747 1.392ZM24.984 6.19734L24.992 6.18134C25.296 5.53867 26.1413 4.548 27.608 3.70267C28.664 3.09333 29.7987 2.71333 30.6867 2.67066C30.3147 3.24 29.5547 4.07334 28.256 4.82401C27.88 5.04001 27.492 5.22933 27.1013 5.38667L25.0147 6.22267L24.984 6.19734ZM18.06 5.38667C17.668 5.22933 17.2787 5.04001 16.904 4.82267C15.6027 4.07334 14.844 3.23866 14.472 2.67066C15.36 2.71333 16.496 3.092 17.5507 3.70133C19.0187 4.548 19.864 5.53734 20.1667 6.18134L20.1747 6.19734L20.1453 6.22267L18.06 5.38667ZM22.58 7.57333C22.656 7.67867 22.7453 7.77467 22.844 7.86134H22.3147C22.4147 7.77467 22.5013 7.67867 22.58 7.57333ZM22.944 10.5293H30.888H42.4933V45.6947H13.956V40.9027H28.224C32.808 40.9027 36.536 37.4373 36.536 33.1747C36.536 28.9133 32.808 25.4453 28.224 25.4453H25.2467V23.0507C25.2467 18.788 21.516 15.32 16.9333 15.32C12.3493 15.32 8.62133 18.788 8.62133 23.0507V35.5693H2.66533V10.5293H17.0667H22.2133L22.5787 11.304L22.944 10.5293Z" fill="url(#paint0_linear_12_129000)"/>
<path d="M67.516 6.62136C67.252 7.24936 66.9213 8.01069 66.524 8.90402C66.1266 9.79869 65.7053 10.7507 65.2573 11.76C64.8106 12.768 64.3773 13.7614 63.9546 14.7374C63.5333 15.7134 63.148 16.608 62.8 17.4187C62.4533 18.2294 62.18 18.8827 61.9813 19.3787C61.9653 19.1974 61.952 19.028 61.9426 18.8707C61.9346 18.7134 61.9106 18.528 61.8706 18.312C61.828 18.096 61.7493 17.7947 61.6333 17.4054C61.5173 17.0174 61.336 16.4907 61.088 15.8294C60.956 15.4494 60.7973 15.0387 60.616 14.6014C60.4333 14.1627 60.236 13.6867 60.0213 13.1734C59.4586 11.8667 59.0813 10.8 58.8906 9.9707C58.7013 9.14403 58.6066 8.49203 58.6066 8.01069C58.6066 7.54803 58.6546 7.21602 58.7533 7.01869L58.9533 6.62136H54.7573C53.9973 6.62136 53.2773 6.68269 52.5986 6.80536C51.92 6.93203 51.308 7.27469 50.7613 7.83735C50.5466 8.06935 50.328 8.35069 50.104 8.68136C49.8813 9.01202 49.6946 9.39203 49.5466 9.82403C49.5293 9.87336 49.516 9.91869 49.5093 9.96002C49.5 10 49.496 10.0387 49.496 10.0707C49.496 10.2867 49.5613 10.3934 49.6946 10.3934C49.744 10.3934 49.776 10.368 49.7946 10.3187C49.9266 9.92269 50.2186 9.54136 50.676 9.17736C51.1306 8.81469 51.688 8.49203 52.3506 8.20936C53.012 7.92936 53.724 7.70802 54.4853 7.55202C55.2466 7.39469 55.9906 7.32403 56.7186 7.34003C56.6373 7.48936 56.4546 7.87069 56.1733 8.48269C55.892 9.09602 55.54 9.86936 55.1173 10.804C54.696 11.7387 54.2333 12.768 53.728 13.8947C53.2226 15.0187 52.7146 16.1774 52.2013 17.3694C51.688 18.56 51.196 19.7227 50.724 20.8547C50.2546 21.9894 49.836 23.02 49.4706 23.9467H51.756C51.7053 23.7147 51.7466 23.3134 51.8786 22.7427C52.0106 22.172 52.2133 21.4894 52.488 20.6947C52.76 19.9 53.0706 19.048 53.4186 18.1387C53.7653 17.228 54.1293 16.3187 54.5106 15.4067C54.8906 14.4974 55.2586 13.632 55.6146 12.8147C55.9706 11.9947 56.28 11.2867 56.5453 10.6907C56.5946 11.2867 56.732 12.0067 56.9546 12.8507C57.1786 13.696 57.5293 14.68 58.0093 15.804C58.556 17.096 59.0146 18.1587 59.388 18.9947C59.76 19.8294 60.0533 20.5254 60.268 21.08C60.4826 21.6347 60.6413 22.1267 60.7413 22.556C60.8386 22.988 60.8973 23.4494 60.9146 23.9467H62.4773C62.4613 23.88 62.448 23.8094 62.44 23.736C62.432 23.6614 62.428 23.5827 62.428 23.5C62.428 23.004 62.548 22.3067 62.788 21.4147C63.028 20.5214 63.3506 19.5227 63.756 18.4227C64.1613 17.324 64.616 16.188 65.1213 15.0227C65.6266 13.856 66.1346 12.7427 66.648 11.684C67.26 10.4267 67.8266 9.35203 68.348 8.45736C68.8693 7.56403 69.3613 6.96002 69.8253 6.64669C69.6933 6.64669 69.436 6.62136 69.056 6.57069C68.6746 6.52136 68.336 6.49602 68.0386 6.49602C67.7386 6.49602 67.5666 6.53869 67.516 6.62136Z" fill="url(#paint1_radial_12_129000)"/>
<path d="M75.448 13.9667C75.224 13.9667 75 13.964 74.7773 13.956C74.5546 13.948 74.376 13.944 74.2426 13.944C73.88 13.944 73.5573 14.088 73.276 14.3774C72.9946 14.6667 72.7293 15.0027 72.4813 15.384C72.2826 15.696 72.0386 16.14 71.748 16.712C71.4586 17.2814 71.136 17.8934 70.7813 18.548C70.4253 19.2014 70.0653 19.8253 69.7013 20.4227C69.336 21.0173 68.9733 21.5053 68.6093 21.8867C68.244 22.268 67.9066 22.4653 67.592 22.4827C67.3266 22.4827 67.144 22.392 67.0453 22.2094C66.9466 22.028 66.896 21.8027 66.896 21.5387C66.896 21.2413 66.9373 20.9173 67.02 20.5707C67.1026 20.2227 67.1946 19.9053 67.2946 19.6147C67.392 19.3253 67.4586 19.1227 67.492 19.0067C67.6413 18.6107 67.848 18.1173 68.112 17.5307C68.3773 16.944 68.6666 16.3507 68.9813 15.7547C69.296 15.1587 69.5933 14.6627 69.8746 14.2667H68.684C68.1706 14.2667 67.8186 14.2947 67.6293 14.3533C67.4386 14.4107 67.252 14.564 67.0693 14.8107C66.74 15.292 66.4333 15.8427 66.152 16.4627C65.8693 17.084 65.6173 17.7213 65.3946 18.3733C65.172 19.028 64.9933 19.636 64.86 20.1973C64.728 20.76 64.6453 21.224 64.6133 21.588C64.5466 22.4493 64.6506 23.0827 64.9226 23.4867C65.196 23.8933 65.5466 24.096 65.9773 24.096C66.3586 24.096 66.7666 24.012 67.2066 23.8467C67.644 23.6813 68.1786 23.284 68.8066 22.6547C69.0893 22.3587 69.3666 22.06 69.6386 21.7627C69.912 21.464 70.1733 21.1413 70.4213 20.7947C70.388 21.0093 70.3626 21.22 70.3466 21.428C70.3306 21.6347 70.3213 21.828 70.3213 22.0107C70.3213 22.6067 70.404 23.076 70.5706 23.424C70.7026 23.6907 70.868 23.8667 71.0653 23.9587C71.2653 24.0493 71.48 24.096 71.712 24.096C72.108 24.096 72.5186 23.9547 72.94 23.6733C73.3626 23.392 73.7626 23.0613 74.144 22.68C74.524 22.3 74.8306 21.96 75.0626 21.6627C75.3946 21.2 75.716 20.732 76.0306 20.26C76.344 19.788 76.6186 19.3547 76.8493 18.9573C76.9493 18.792 77.0186 18.6227 77.0613 18.448C77.1013 18.2747 77.1226 18.1214 77.1226 17.988C77.1226 17.724 77.0733 17.592 76.9733 17.592C76.924 17.592 76.8666 17.6507 76.8 17.7654C76.584 18.18 76.3293 18.6347 76.0306 19.1307C75.732 19.628 75.4106 20.0907 75.0626 20.5213C74.7466 20.936 74.4253 21.2747 74.0946 21.5387C73.6653 21.8707 73.3333 22.0347 73.1026 22.0347C72.7706 22.0347 72.6053 21.7867 72.6053 21.2907C72.6053 21.076 72.6466 20.8187 72.7293 20.5213C72.928 19.744 73.2293 18.92 73.636 18.0507C74.04 17.1827 74.4586 16.3187 74.8893 15.4573C74.9546 15.3253 75.0506 15.1547 75.1746 14.948C75.2986 14.7427 75.4266 14.54 75.5586 14.34C75.6906 14.1427 75.8066 14.0093 75.9066 13.944C75.824 13.96 75.6706 13.9667 75.448 13.9667Z" fill="url(#paint2_radial_12_129000)"/>
<path d="M79.2573 14.9373C78.396 15.516 77.6853 16.244 77.1226 17.12C76.7586 17.6827 76.4653 18.3 76.2413 18.9693C76.0186 19.64 75.9053 20.2893 75.9053 20.9173C75.9053 21.2987 75.9559 21.6627 76.0546 22.0107C76.2706 22.772 76.6839 23.3267 77.2959 23.6733C77.9079 24.0213 78.5706 24.1933 79.2826 24.1933C80.1253 24.1933 80.9279 23.9973 81.6893 23.6C82.1373 23.3667 82.5493 23.0867 82.9306 22.7533C83.3106 22.424 83.6506 22.06 83.9479 21.6627C84.2799 21.216 84.6066 20.748 84.9279 20.26C85.2519 19.7733 85.5279 19.3213 85.7613 18.908C85.8586 18.7253 85.9306 18.548 85.9719 18.3733C86.0133 18.2 86.0333 18.0387 86.0333 17.8907C86.0333 17.6253 85.984 17.4933 85.884 17.4933C85.8346 17.4933 85.7759 17.5507 85.7106 17.6667C85.4626 18.1453 85.2466 18.548 85.0653 18.8707C84.884 19.1933 84.7093 19.4773 84.5439 19.7267C84.3786 19.976 84.1799 20.24 83.9479 20.5213C83.6506 20.9013 83.2813 21.2987 82.844 21.712C82.4053 22.1267 81.9333 22.4747 81.4293 22.7533C80.9239 23.0373 80.4146 23.1773 79.9026 23.1773C79.2906 23.1773 78.8426 22.9813 78.5626 22.5947C78.2813 22.204 78.14 21.7053 78.14 21.092C78.14 20.412 78.2973 19.6693 78.6106 18.8587C78.9759 19.0413 79.4973 19.1307 80.1746 19.1307C80.5066 19.1307 80.8586 19.1027 81.2306 19.044C81.6026 18.9853 81.9546 18.8987 82.2853 18.7827C82.9639 18.536 83.5146 18.1747 83.936 17.7027C84.3586 17.232 84.568 16.6827 84.568 16.0547C84.568 15.524 84.3533 15.06 83.9239 14.6627C83.4933 14.2667 82.8893 14.068 82.1119 14.068C81.0693 14.068 80.1173 14.3573 79.2573 14.9373ZM79.7039 18.412C79.6053 18.3947 79.5133 18.36 79.4306 18.312C79.2826 18.2467 79.2079 18.1213 79.2079 17.9387C79.2079 17.724 79.2973 17.4707 79.4813 17.1827C79.6626 16.8947 79.8573 16.628 80.0639 16.388C80.2706 16.1493 80.4146 15.9867 80.4986 15.904C80.7466 15.6573 81.0026 15.4427 81.2679 15.26C81.5319 15.0773 81.7973 14.9533 82.0626 14.8867C82.26 14.8373 82.4253 14.8107 82.5586 14.8107C82.8239 14.8107 83.0093 14.8827 83.1173 15.0227C83.224 15.1653 83.2693 15.3347 83.2546 15.532C83.22 15.996 83.072 16.4093 82.8066 16.7733C82.5426 17.136 82.2186 17.452 81.8386 17.716C81.6066 17.8813 81.3253 18.044 80.9946 18.2C80.6626 18.3573 80.3319 18.436 80.0026 18.436C79.9026 18.436 79.8026 18.428 79.7039 18.412Z" fill="url(#paint3_radial_12_129000)"/>
<path d="M87.8453 14.068C87.3813 14.332 87.0346 14.6213 86.8026 14.9373C86.6373 15.152 86.5119 15.412 86.4306 15.7187C86.3479 16.0253 86.3053 16.3347 86.3053 16.6493C86.3053 16.964 86.3386 17.228 86.4053 17.4427C86.5546 17.9067 86.7906 18.304 87.1133 18.6347C87.4359 18.9667 87.7746 19.292 88.1293 19.6147C88.4866 19.9373 88.7719 20.3213 88.9866 20.7707C89.1199 21.0347 89.1853 21.3147 89.1853 21.6133C89.1853 22.1267 88.9826 22.5693 88.5773 22.9427C88.1719 23.3133 87.6959 23.508 87.1506 23.5253C86.7359 23.5253 86.4 23.4173 86.1453 23.2027C85.888 22.988 85.7599 22.7053 85.7599 22.3587C85.7599 22.1093 85.8346 21.836 85.9826 21.5387C85.9999 21.5053 86.0413 21.444 86.108 21.3533C86.1733 21.2627 86.216 21.2067 86.232 21.1907C86.1826 21.0587 86.0826 20.9507 85.9333 20.868C85.7853 20.7853 85.62 20.744 85.4386 20.744C85.024 20.744 84.7053 20.9173 84.4813 21.2653C84.2586 21.6133 84.1466 21.9693 84.1466 22.332C84.1466 22.812 84.3039 23.2093 84.6186 23.5253C84.9333 23.8387 85.3386 24.0707 85.8346 24.2187C86.3306 24.3693 86.8599 24.444 87.4226 24.444C88.5986 24.444 89.6146 24.232 90.476 23.8093C91.3373 23.388 92.1466 22.672 92.9079 21.6627C93.2879 21.1667 93.6106 20.708 93.8773 20.2853C94.1413 19.864 94.4226 19.404 94.7213 18.908C94.8026 18.7427 94.8653 18.576 94.9066 18.412C94.9479 18.2467 94.9679 18.1053 94.9679 17.988C94.9679 17.7093 94.9186 17.5667 94.8199 17.5667C94.7706 17.5667 94.7119 17.6253 94.6466 17.7413C94.4306 18.1547 94.2199 18.532 94.0119 18.8707C93.8053 19.2107 93.5786 19.5693 93.3306 19.9493C92.9506 20.5293 92.5 21.112 91.9786 21.6987C91.456 22.288 90.9226 22.6973 90.3773 22.9293C90.6906 22.6973 90.9719 22.3787 91.2213 21.972C91.4693 21.568 91.5933 21.116 91.5933 20.62C91.5933 20.256 91.5106 19.9 91.344 19.552C91.1293 19.056 90.804 18.6347 90.364 18.2867C89.9253 17.9387 89.4999 17.616 89.0866 17.3187C88.9199 17.1867 88.7546 17.0293 88.5893 16.848C88.4239 16.6667 88.3 16.4667 88.2173 16.252C88.2 16.1693 88.1799 16.0867 88.1559 16.0027C88.1293 15.9213 88.1173 15.8467 88.1173 15.78C88.1173 15.3667 88.2999 15.0027 88.6639 14.688C88.8466 14.556 89.0493 14.46 89.272 14.4027C89.496 14.344 89.7319 14.3147 89.9799 14.3147C90.1786 14.3147 90.3893 14.3707 90.6119 14.4773C90.8359 14.5853 90.9466 14.7787 90.9466 15.06C90.9466 15.208 90.8986 15.3587 90.7999 15.5067C90.5999 15.772 90.2773 15.9533 89.8306 16.0547C89.7639 16.4507 89.8466 16.7187 90.0786 16.8587C90.3106 17 90.5746 17.0547 90.8733 17.0213C91.3546 16.9387 91.7213 16.712 91.9786 16.3387C92.2333 15.9667 92.364 15.5733 92.364 15.1587C92.364 14.7947 92.2506 14.5013 92.028 14.28C91.804 14.0547 91.544 13.8947 91.2466 13.7947C90.8493 13.6613 90.3933 13.596 89.8813 13.596C89.1026 13.596 88.4239 13.752 87.8453 14.068Z" fill="url(#paint4_radial_12_129000)"/>
<path d="M100.988 9.74935H100.307C99.8921 9.74935 99.5027 9.88934 99.1387 10.1707C98.7747 10.452 98.44 10.812 98.1347 11.2507C97.828 11.688 97.5547 12.156 97.3147 12.652C97.0734 13.1493 96.8641 13.612 96.6827 14.0413H94.796C94.7454 14.0413 94.6721 14.104 94.5707 14.228C94.4734 14.3534 94.3987 14.4813 94.348 14.6147C94.2974 14.7467 94.3147 14.8107 94.3987 14.8107H96.06C95.8787 15.2747 95.6627 15.7547 95.4147 16.252C95.168 16.748 94.9267 17.208 94.696 17.6293C94.4627 18.0507 94.2827 18.3947 94.1494 18.66C93.9507 19.056 93.8507 19.4214 93.8507 19.752C93.8507 19.9 93.8854 19.976 93.9507 19.976C94.0174 19.976 94.108 19.884 94.224 19.7027C94.3067 19.5693 94.448 19.3587 94.6467 19.0693C94.8454 18.78 95.0107 18.5107 95.1427 18.2627V18.2867C95.0281 18.6187 94.9147 18.9613 94.8067 19.3173C94.7001 19.6733 94.6054 20.0653 94.5227 20.496C94.4734 20.76 94.4307 21.0307 94.3987 21.3027C94.3641 21.576 94.348 21.8453 94.348 22.1093C94.348 22.3747 94.3734 22.6307 94.4227 22.88C94.4734 23.1267 94.5561 23.3427 94.6721 23.5253C94.9187 23.9053 95.284 24.096 95.7627 24.096C96.16 24.096 96.5707 23.9547 96.992 23.6733C97.4147 23.392 97.8107 23.0613 98.1827 22.68C98.5547 22.3 98.8574 21.96 99.0894 21.6627C99.42 21.2 99.7427 20.732 100.056 20.26C100.372 19.788 100.644 19.3547 100.876 18.9573C100.976 18.792 101.045 18.6227 101.088 18.448C101.128 18.2747 101.149 18.1214 101.149 17.988C101.149 17.724 101.1 17.592 101.001 17.592C100.951 17.592 100.893 17.6507 100.827 17.7654C100.612 18.18 100.352 18.6347 100.045 19.1307C99.7387 19.628 99.42 20.0907 99.0894 20.5213C98.724 20.9853 98.3614 21.3493 97.9974 21.6133C97.632 21.8773 97.3187 22.0107 97.0534 22.0107C96.6574 22.0107 96.4574 21.6947 96.4574 21.0667C96.4574 20.8027 96.4907 20.5133 96.5574 20.1973C96.6574 19.6853 96.8094 19.1187 97.0174 18.4973C97.2227 17.8787 97.4534 17.244 97.7121 16.5987C97.9681 15.9534 98.2041 15.3587 98.4187 14.8107H100.555C100.668 14.8107 100.789 14.7467 100.913 14.6147C101.037 14.4813 101.14 14.3534 101.224 14.228C101.307 14.104 101.323 14.0413 101.273 14.0413H98.7667C99.3121 12.768 99.8174 11.788 100.281 11.1014C100.743 10.4147 101.149 9.95601 101.496 9.72401C101.431 9.74001 101.261 9.74935 100.988 9.74935Z" fill="url(#paint5_radial_12_129000)"/>
<path d="M101.645 13.0747C101.397 13.1907 101.211 13.3547 101.088 13.5707C100.964 13.7867 100.9 14.0267 100.9 14.2907C100.9 14.556 100.975 14.824 101.124 15.0973C101.273 15.3707 101.496 15.5813 101.795 15.732C101.779 15.7973 101.703 15.9627 101.571 16.2267C101.439 16.4907 101.291 16.7933 101.124 17.1333C100.959 17.4707 100.792 17.7987 100.629 18.1133C100.561 18.2467 100.512 18.3867 100.479 18.536C100.445 18.6827 100.429 18.8253 100.429 18.9573C100.429 19.1227 100.451 19.252 100.492 19.3413C100.532 19.432 100.577 19.4387 100.629 19.3547C101.124 18.5427 101.521 17.84 101.82 17.244C102.117 16.6493 102.332 16.2187 102.465 15.9533C102.613 16.0187 102.804 16.0547 103.036 16.0547C103.332 16.0547 103.639 15.992 103.955 15.8667C104.267 15.7427 104.541 15.5813 104.772 15.384C104.508 15.7973 104.28 16.2187 104.091 16.6493C103.9 17.08 103.747 17.436 103.631 17.716C103.316 18.4933 103.068 19.256 102.887 20C102.704 20.744 102.613 21.4227 102.613 22.0347C102.613 22.5813 102.704 23.052 102.887 23.4493C103.117 23.896 103.499 24.12 104.028 24.12C104.425 24.12 104.844 23.9787 105.283 23.6987C105.719 23.4173 106.133 23.0867 106.523 22.7053C106.911 22.324 107.213 21.9853 107.429 21.688C107.76 21.224 108.083 20.748 108.396 20.26C108.711 19.7733 108.993 19.3213 109.24 18.908C109.324 18.7573 109.381 18.6013 109.416 18.436C109.448 18.272 109.464 18.1307 109.464 18.0147C109.464 17.716 109.416 17.5667 109.316 17.5667C109.283 17.5667 109.224 17.6333 109.141 17.7653C108.927 18.18 108.671 18.6347 108.372 19.1307C108.073 19.628 107.76 20.0907 107.429 20.5213C107.132 20.9013 106.791 21.2493 106.412 21.564C105.981 21.8947 105.649 22.06 105.419 22.06C105.087 22.06 104.921 21.812 104.921 21.3147C104.921 21.1827 104.935 21.0547 104.96 20.9293C104.984 20.8067 105.012 20.6693 105.047 20.5213C105.244 19.744 105.533 18.928 105.915 18.076C106.295 17.224 106.709 16.3667 107.156 15.5067C107.223 15.3907 107.313 15.2267 107.429 15.0107C107.544 14.7947 107.669 14.5893 107.801 14.3893C107.933 14.192 108.049 14.0587 108.149 13.992C107.999 14.0093 107.755 14.0093 107.416 13.992C107.077 13.9773 106.816 13.9667 106.635 13.9667C106.287 13.9667 105.964 14.0933 105.667 14.34C105.369 14.5893 105.104 14.8787 104.872 15.208C104.393 15.2747 103.944 15.184 103.532 14.9373C103.117 14.688 102.911 14.308 102.911 13.7947C102.911 13.712 102.915 13.632 102.924 13.5587C102.932 13.4853 102.945 13.4147 102.96 13.348C102.729 13.116 102.432 13 102.068 13C101.935 13 101.795 13.0253 101.645 13.0747Z" fill="url(#paint6_radial_12_129000)"/>
<path d="M111.711 14.6387C110.976 15.1187 110.337 15.752 109.799 16.536C109.261 17.324 108.843 18.172 108.547 19.08C108.249 19.9907 108.099 20.8773 108.099 21.7373C108.099 22.5813 108.26 23.1733 108.583 23.512C108.905 23.852 109.299 24.0213 109.763 24.0213C110.34 24.0213 110.924 23.8067 111.513 23.3747C112.099 22.9453 112.659 22.408 113.188 21.7627C113.503 21.3987 113.812 20.976 114.119 20.496C114.424 20.016 114.719 19.52 115 19.0067C114.916 19.272 114.847 19.5227 114.789 19.764C114.731 20.004 114.677 20.24 114.627 20.4707C114.528 20.9854 114.479 21.5053 114.479 22.0347C114.479 22.6147 114.575 23.1014 114.764 23.5C114.955 23.896 115.307 24.096 115.819 24.096C116.315 24.096 116.816 23.9053 117.32 23.5253C117.825 23.144 118.309 22.676 118.772 22.1214C119.235 21.568 119.653 21.0013 120.025 20.4227C120.397 19.8427 120.7 19.3547 120.932 18.9573C121.016 18.8093 121.077 18.6507 121.117 18.4867C121.16 18.3214 121.18 18.172 121.18 18.0387C121.18 17.7587 121.131 17.616 121.031 17.616C120.981 17.616 120.924 17.6747 120.857 17.7907C120.527 18.436 120.143 19.1053 119.703 19.8C119.265 20.496 118.756 21.076 118.176 21.5387C117.779 21.8707 117.449 22.0347 117.183 22.0347C116.903 22.0347 116.761 21.82 116.761 21.3893C116.761 21.2587 116.771 21.1213 116.787 20.9813C116.803 20.84 116.837 20.6867 116.887 20.5213C117.084 19.744 117.365 18.9333 117.731 18.0893C118.093 17.244 118.499 16.392 118.945 15.532C119.013 15.416 119.104 15.2547 119.219 15.048C119.336 14.8414 119.463 14.6387 119.603 14.4387C119.745 14.2413 119.856 14.1093 119.939 14.0413C119.791 14.0587 119.551 14.0587 119.219 14.0413C118.888 14.0267 118.631 14.0173 118.451 14.0173C118.085 14.0173 117.755 14.1427 117.456 14.3893C117.159 14.6387 116.893 14.944 116.663 15.3093C116.645 15.3253 116.627 15.3414 116.601 15.3587C116.577 15.3747 116.555 15.4 116.539 15.432C116.44 15.036 116.249 14.7253 115.967 14.5013C115.685 14.28 115.379 14.1253 115.049 14.0413C114.719 13.96 114.412 13.9187 114.131 13.9187C113.255 13.9187 112.448 14.16 111.711 14.6387ZM110.879 21.936C110.631 21.8534 110.508 21.604 110.508 21.1907C110.508 20.744 110.627 20.1907 110.867 19.528C111.107 18.8654 111.421 18.1973 111.809 17.5173C112.2 16.8387 112.607 16.2853 113.039 15.8547C113.32 15.5733 113.663 15.3347 114.069 15.1347C114.473 14.9374 114.859 14.8373 115.223 14.8373C115.504 14.8373 115.749 14.9027 115.956 15.036C116.163 15.168 116.307 15.3747 116.389 15.6574C116.339 15.7387 116.141 16.0693 115.795 16.6493C115.447 17.228 114.909 18.096 114.18 19.256C113.9 19.6853 113.577 20.1107 113.213 20.532C112.848 20.9547 112.484 21.2987 112.121 21.564C111.756 21.828 111.417 21.96 111.103 21.96C111.004 21.96 110.929 21.952 110.879 21.936Z" fill="url(#paint7_radial_12_129000)"/>
<path d="M132.375 6.62134C131.893 6.62134 131.32 6.64667 130.649 6.69467C129.979 6.744 129.329 6.85333 128.7 7.01867C128.072 7.184 127.575 7.45733 127.212 7.83733C126.979 8.06933 126.74 8.38266 126.491 8.78C126.243 9.17733 126.036 9.59066 125.871 10.0213C125.855 10.104 125.859 10.1787 125.884 10.2453C125.908 10.3107 125.937 10.344 125.969 10.344C126.02 10.344 126.053 10.3187 126.071 10.2707C126.351 9.78934 126.803 9.38133 127.423 9.04C128.043 8.70133 128.747 8.42401 129.532 8.20934C130.317 7.99467 131.083 7.83733 131.828 7.73733L132.72 7.61333C132.655 7.71333 132.593 7.82134 132.535 7.936C132.479 8.052 132.415 8.176 132.348 8.30933C132.167 8.656 131.899 9.19066 131.543 9.90933C131.185 10.6293 130.789 11.4573 130.352 12.392C129.912 13.3267 129.483 14.2907 129.06 15.284C128.64 16.276 128.267 17.228 127.943 18.1387C127.62 19.048 127.392 19.8347 127.261 20.496C127.228 20.7107 127.2 20.9227 127.175 21.1293C127.149 21.336 127.137 21.5387 127.137 21.7373C127.137 22.0533 127.177 22.3413 127.261 22.6067C127.344 22.872 127.492 23.0947 127.708 23.2773C128.155 23.656 128.724 23.9333 129.42 24.108C130.115 24.2813 130.851 24.3693 131.629 24.3693C132.556 24.3693 133.491 24.268 134.435 24.0707C135.377 23.8707 136.255 23.6027 137.064 23.264C137.876 22.9253 138.529 22.54 139.025 22.1093C139.605 21.6133 140.064 21.0547 140.404 20.4347C140.744 19.8133 140.913 19.148 140.913 18.436C140.913 17.5427 140.615 16.7733 140.019 16.128C139.423 15.4813 138.431 15.028 137.04 14.7613C137.488 14.6627 137.971 14.5107 138.491 14.3027C139.015 14.0973 139.517 13.8147 140.007 13.4587C140.495 13.1027 140.904 12.6707 141.236 12.156C141.565 11.644 141.764 11.0387 141.832 10.344C141.897 9.69734 141.781 9.09066 141.484 8.51866C141.185 7.948 140.693 7.48934 140.007 7.14134C139.32 6.79467 138.407 6.62134 137.264 6.62134H132.375ZM131.431 23.3507C131.199 23.3347 130.968 23.3107 130.736 23.2773C130.372 23.2093 130.124 23.052 129.992 22.8053C129.859 22.556 129.792 22.2493 129.792 21.8867C129.792 21.4227 129.871 20.8973 130.028 20.3107C130.187 19.7227 130.347 19.172 130.512 18.66C130.844 17.5507 131.261 16.4093 131.767 15.2333C132.271 14.0587 132.755 12.976 133.219 11.9827C133.433 11.5027 133.68 10.98 133.964 10.4173C134.243 9.856 134.547 9.30667 134.868 8.76934C135.192 8.232 135.501 7.76267 135.8 7.36533C136.412 7.38133 136.983 7.47334 137.512 7.63867C138.041 7.804 138.468 8.07333 138.791 8.44666C139.113 8.81866 139.275 9.34266 139.275 10.0213C139.275 10.5347 139.167 11.06 138.951 11.5987C138.736 12.136 138.431 12.6107 138.035 13.0253C137.784 13.2733 137.488 13.5373 137.14 13.82C136.792 14.1 136.355 14.3253 135.824 14.4893C135.576 14.456 135.341 14.432 135.117 14.4147C134.892 14.3987 134.675 14.3893 134.459 14.3893C134.063 14.3893 133.715 14.4147 133.416 14.464C133.3 14.4813 133.152 14.5427 132.971 14.6507C132.788 14.7587 132.623 14.8827 132.473 15.0227C132.324 15.1653 132.251 15.284 132.251 15.384C132.251 15.4987 132.383 15.556 132.647 15.556C132.928 15.556 133.268 15.532 133.665 15.4813C134.063 15.432 134.443 15.3747 134.807 15.3093C135.169 15.2427 135.443 15.184 135.625 15.1347C136.452 15.2333 137.061 15.5947 137.449 16.2147C137.839 16.8347 138.035 17.5333 138.035 18.312C138.035 18.8093 137.96 19.2973 137.809 19.776C137.563 20.6373 137.144 21.3333 136.557 21.8613C135.971 22.392 135.287 22.776 134.508 23.016C133.729 23.2547 132.936 23.3747 132.127 23.3747C131.893 23.3747 131.663 23.3667 131.431 23.3507Z" fill="url(#paint8_radial_12_129000)"/>
<path d="M145.405 14.54C144.661 15.0027 144.028 15.5987 143.507 16.3254C142.985 17.0547 142.584 17.84 142.303 18.6827C142.021 19.528 141.881 20.3387 141.881 21.116C141.881 22.176 142.157 22.9454 142.712 23.424C143.267 23.9054 143.924 24.144 144.685 24.144C145.877 24.144 146.855 23.86 147.613 23.2894C148.376 22.7174 148.996 22.028 149.476 21.216C149.675 20.9174 149.84 20.6294 149.973 20.3467C150.387 20.6627 150.851 20.8187 151.363 20.8187C151.644 20.8187 151.908 20.7707 152.157 20.6693C152.488 20.5387 152.785 20.36 153.051 20.1347C153.316 19.9134 153.573 19.5854 153.82 19.1547C153.953 18.9574 154.039 18.7573 154.08 18.56C154.123 18.36 154.143 18.188 154.143 18.0387C154.143 17.8067 154.101 17.692 154.019 17.692C153.953 17.692 153.895 17.7414 153.844 17.84C153.696 18.1054 153.527 18.3907 153.335 18.696C153.145 19.0027 152.935 19.256 152.703 19.4534C152.305 19.8 151.875 19.976 151.413 19.976C150.981 19.976 150.625 19.8107 150.345 19.4774C150.511 19.0654 150.639 18.648 150.731 18.2267C150.82 17.804 150.867 17.3867 150.867 16.972C150.867 16.4267 150.776 15.912 150.593 15.432C150.411 14.9534 150.108 14.568 149.687 14.28C149.265 13.9894 148.673 13.844 147.912 13.844C146.985 13.844 146.151 14.076 145.405 14.54ZM144.575 22.7427C144.384 22.4374 144.288 22.0534 144.288 21.588C144.288 21.0587 144.379 20.488 144.563 19.8747C144.743 19.2627 144.943 18.7427 145.157 18.312C145.307 18.0147 145.492 17.6787 145.715 17.3054C145.94 16.9334 146.195 16.5707 146.485 16.2147C146.775 15.8587 147.089 15.5654 147.428 15.3347C147.767 15.1014 148.127 14.9867 148.508 14.9867C148.921 14.9867 149.219 15.1094 149.401 15.3587C149.583 15.6054 149.684 15.9214 149.7 16.3014C149.236 16.2694 148.872 16.384 148.607 16.6494C148.343 16.9147 148.211 17.2854 148.211 17.7654C148.211 18.4934 148.492 19.0987 149.055 19.5773C148.907 19.892 148.719 20.256 148.496 20.6693C148.272 21.0827 148.011 21.48 147.715 21.8614C147.417 22.2427 147.089 22.56 146.733 22.816C146.377 23.0734 146.011 23.2027 145.629 23.2027C145.115 23.2027 144.764 23.0494 144.575 22.7427Z" fill="url(#paint9_radial_12_129000)"/>
<path d="M165.971 7.73735H165.287C165.089 7.73735 164.9 7.74668 164.717 7.76268C164.535 7.77868 164.369 7.80401 164.219 7.83734C164.037 7.88668 163.877 7.96802 163.737 8.08535C163.596 8.20135 163.443 8.40402 163.277 8.69335C163.112 8.98402 162.887 9.40935 162.607 9.97069C162.392 10.4027 162.143 11.0067 161.863 11.784C161.58 12.5614 161.243 13.3907 160.845 14.2667C160.796 14.364 160.745 14.4813 160.696 14.6147C160.645 14.7467 160.581 14.8787 160.497 15.0107C160.265 14.58 159.925 14.2907 159.479 14.1427C159.032 13.992 158.627 13.9187 158.263 13.9187C157.385 13.9187 156.579 14.16 155.844 14.6387C155.107 15.1187 154.469 15.752 153.932 16.536C153.395 17.324 152.976 18.172 152.677 19.08C152.38 19.9907 152.232 20.8773 152.232 21.7373C152.232 22.5813 152.393 23.1733 152.716 23.512C153.037 23.852 153.431 24.0213 153.895 24.0213C154.424 24.0213 154.949 23.852 155.471 23.512C155.992 23.1733 156.497 22.7267 156.985 22.172C157.473 21.6174 157.924 21.0134 158.337 20.36C158.751 19.7054 159.116 19.0654 159.429 18.436C159.299 18.8494 159.181 19.2347 159.083 19.5907C158.983 19.9453 158.916 20.248 158.884 20.496C158.833 20.7773 158.793 21.0547 158.759 21.3267C158.725 21.6 158.709 21.8707 158.709 22.1347C158.709 22.6974 158.805 23.164 158.996 23.5374C159.184 23.9094 159.529 24.096 160.025 24.096C160.423 24.096 160.832 23.9547 161.255 23.6733C161.675 23.392 162.073 23.0613 162.444 22.68C162.817 22.3 163.119 21.96 163.352 21.6627C163.681 21.2 164.009 20.724 164.332 20.236C164.655 19.748 164.932 19.3053 165.164 18.908C165.329 18.6267 165.411 18.328 165.411 18.0147C165.411 17.716 165.353 17.5667 165.239 17.5667C165.204 17.5667 165.147 17.6334 165.065 17.7654C164.848 18.1974 164.593 18.656 164.295 19.144C163.997 19.6307 163.681 20.0907 163.352 20.5213C163.252 20.6373 163.087 20.8187 162.855 21.0667C162.623 21.3147 162.371 21.5387 162.099 21.7373C161.825 21.936 161.589 22.0347 161.389 22.0347C161.092 22.0347 160.943 21.7707 160.943 21.2413C160.943 20.76 161.039 20.132 161.229 19.3547C161.419 18.576 161.675 17.712 161.999 16.7613C162.321 15.8093 162.677 14.8494 163.067 13.8814C163.455 12.912 163.857 11.9987 164.271 11.1374C164.684 10.2774 165.081 9.54135 165.461 8.92935C165.841 8.31601 166.173 7.91202 166.453 7.71335C166.388 7.72935 166.225 7.73735 165.971 7.73735ZM155.012 21.936C154.764 21.8534 154.639 21.604 154.639 21.1907C154.639 20.744 154.759 20.1907 155 19.528C155.24 18.8654 155.553 18.1973 155.943 17.5173C156.331 16.8387 156.741 16.2853 157.171 15.8547C157.451 15.5733 157.799 15.3373 158.213 15.1467C158.627 14.9573 159.016 14.8627 159.38 14.8627C159.579 14.8627 159.765 14.8947 159.939 14.9613C160.112 15.028 160.257 15.1427 160.373 15.3093C160.191 15.6893 159.996 16.1 159.791 16.536C159.583 16.976 159.388 17.376 159.207 17.7413C159.024 18.1053 158.867 18.3867 158.735 18.5854C158.105 19.5947 157.481 20.4093 156.861 21.0307C156.24 21.6493 155.699 21.96 155.235 21.96C155.135 21.96 155.061 21.952 155.012 21.936Z" fill="url(#paint10_radial_12_129000)"/>
<path d="M167.659 14.6387C166.921 15.1187 166.284 15.752 165.747 16.536C165.209 17.324 164.792 18.172 164.493 19.08C164.195 19.9907 164.047 20.8773 164.047 21.7373C164.047 22.5813 164.208 23.1733 164.531 23.512C164.855 23.852 165.245 24.0213 165.709 24.0213C166.289 24.0213 166.872 23.8067 167.459 23.3747C168.047 22.9453 168.605 22.408 169.135 21.7627C169.449 21.3987 169.76 20.976 170.065 20.496C170.372 20.016 170.664 19.52 170.948 19.0067C170.864 19.272 170.795 19.5227 170.736 19.764C170.677 20.004 170.625 20.24 170.576 20.4707C170.475 20.9854 170.425 21.5053 170.425 22.0347C170.425 22.6147 170.52 23.1014 170.712 23.5C170.903 23.896 171.253 24.096 171.767 24.096C172.263 24.096 172.763 23.9053 173.267 23.5253C173.772 23.144 174.256 22.676 174.719 22.1214C175.184 21.568 175.601 21.0013 175.973 20.4227C176.347 19.8427 176.648 19.3547 176.879 18.9573C176.963 18.8093 177.024 18.6507 177.067 18.4867C177.107 18.3214 177.128 18.172 177.128 18.0387C177.128 17.7587 177.077 17.616 176.979 17.616C176.929 17.616 176.871 17.6747 176.805 17.7907C176.473 18.436 176.089 19.1053 175.651 19.8C175.212 20.496 174.703 21.076 174.124 21.5387C173.728 21.8707 173.396 22.0347 173.132 22.0347C172.849 22.0347 172.709 21.82 172.709 21.3893C172.709 21.2587 172.716 21.1213 172.735 20.9813C172.752 20.84 172.784 20.6867 172.833 20.5213C173.032 19.744 173.313 18.9333 173.677 18.0893C174.041 17.244 174.445 16.392 174.895 15.532C174.959 15.416 175.051 15.2547 175.167 15.048C175.283 14.8414 175.412 14.6387 175.552 14.4387C175.692 14.2413 175.803 14.1093 175.887 14.0413C175.739 14.0587 175.497 14.0587 175.167 14.0413C174.836 14.0267 174.579 14.0173 174.396 14.0173C174.035 14.0173 173.703 14.1427 173.404 14.3893C173.107 14.6387 172.843 14.944 172.611 15.3093C172.593 15.3253 172.572 15.3414 172.548 15.3587C172.523 15.3747 172.501 15.4 172.485 15.432C172.387 15.036 172.196 14.7253 171.915 14.5013C171.635 14.28 171.328 14.1253 170.997 14.0413C170.664 13.96 170.359 13.9187 170.077 13.9187C169.2 13.9187 168.395 14.16 167.659 14.6387ZM166.827 21.936C166.579 21.8534 166.453 21.604 166.453 21.1907C166.453 20.744 166.573 20.1907 166.815 19.528C167.055 18.8654 167.368 18.1973 167.757 17.5173C168.145 16.8387 168.556 16.2853 168.985 15.8547C169.268 15.5733 169.611 15.3347 170.016 15.1347C170.423 14.9374 170.807 14.8373 171.169 14.8373C171.452 14.8373 171.695 14.9027 171.903 15.036C172.109 15.168 172.253 15.3747 172.337 15.6574C172.287 15.7387 172.089 16.0693 171.741 16.6493C171.395 17.228 170.856 18.096 170.127 19.256C169.847 19.6853 169.523 20.1107 169.16 20.532C168.795 20.9547 168.432 21.2987 168.068 21.564C167.704 21.828 167.364 21.96 167.051 21.96C166.951 21.96 166.876 21.952 166.827 21.936Z" fill="url(#paint11_radial_12_129000)"/>
<path d="M64.5227 27.2907V33.2147H52.9507V27.2907H51.4347V33.2147H50.0574L49.1494 34.7587H51.4347V46.028H52.9507V34.7587H64.5227V46.028H66.0387V27.2907H64.5227Z" fill="url(#paint12_linear_12_129000)"/>
<path d="M69.8734 35.6467C68.672 36.8267 68.0734 38.2627 68.0734 39.9507C68.0734 41.6014 68.672 43.0267 69.8734 44.2267C71.0734 45.428 72.4987 46.028 74.1494 46.028C75.8374 46.028 77.272 45.428 78.4534 44.2267C79.636 43.0267 80.2267 41.6014 80.2267 39.9507C80.2267 38.2627 79.636 36.8267 78.4534 35.6467C77.272 34.464 75.8374 33.8747 74.1494 33.8747C72.4987 33.8747 71.0734 34.464 69.8734 35.6467ZM70.928 43.172C70.0547 42.3 69.62 41.2254 69.62 39.9507C69.62 38.6747 70.0547 37.6014 70.928 36.7294C71.8 35.856 72.8734 35.4214 74.1494 35.4214C75.4067 35.4214 76.476 35.8627 77.356 36.7427C78.2387 37.6254 78.6787 38.6947 78.6787 39.9507C78.6787 41.208 78.2387 42.276 77.356 43.1574C76.476 44.0387 75.4067 44.48 74.1494 44.48C72.8734 44.48 71.8 44.044 70.928 43.172Z" fill="url(#paint13_linear_12_129000)"/>
<path d="M90.0813 36.1534C89.704 35.5707 89.18 35.1014 88.5053 34.7454C87.828 34.3907 87.1173 34.2107 86.3667 34.2107C85.128 34.2107 84.0693 34.6534 83.1866 35.532L81.8933 34.5214V46.028H83.44V38.684C83.44 37.804 83.736 37.0947 84.3267 36.56C84.9173 36.0267 85.5973 35.7587 86.3667 35.7587C87.1547 35.7587 87.8386 36.0267 88.42 36.56C89.0013 37.0947 89.292 37.804 89.292 38.684V46.028H90.8387V38.684C90.8387 37.804 91.1346 37.0947 91.7266 36.56C92.3173 36.0267 92.996 35.7587 93.7653 35.7587C94.5533 35.7587 95.2387 36.0267 95.82 36.56C96.4 37.0947 96.6907 37.804 96.6907 38.684V46.028H98.24V38.684C98.24 38.028 98.1173 37.432 97.8733 36.8974C97.6293 36.364 97.3146 35.904 96.9306 35.5187C96.5466 35.1347 96.0866 34.8214 95.552 34.5774C95.0173 34.3334 94.4213 34.2107 93.7653 34.2107C92.208 34.2107 90.98 34.8587 90.0813 36.1534Z" fill="url(#paint14_linear_12_129000)"/>
<path d="M101.705 35.6467C100.505 36.8267 99.9053 38.2627 99.9053 39.9507C99.9053 41.6014 100.505 43.0267 101.705 44.2267C102.905 45.428 104.332 46.028 105.983 46.028C107.125 46.028 108.177 45.732 109.133 45.1414C110.089 44.5494 110.821 43.776 111.328 42.82L109.979 42.06C109.583 42.812 109.035 43.4014 108.332 43.8347C107.628 44.2654 106.845 44.48 105.983 44.48C104.951 44.48 104.041 44.18 103.253 43.58L111.103 36.66C110.596 35.8534 109.879 35.1867 108.949 34.6614C108.023 34.1374 107.032 33.8747 105.983 33.8747C104.332 33.8747 102.905 34.464 101.705 35.6467ZM101.453 39.9507C101.453 38.6747 101.889 37.6014 102.761 36.7294C103.632 35.856 104.707 35.4214 105.983 35.4214C107.108 35.4214 108.092 35.7867 108.936 36.5187L102.212 42.4814C101.705 41.7134 101.453 40.8707 101.453 39.9507Z" fill="url(#paint15_linear_12_129000)"/>
<path d="M114.78 27.7547C113.833 28.7027 113.361 29.8507 113.361 31.2C113.361 32.308 113.692 33.2974 114.359 34.1694C115.024 35.04 115.892 35.6174 116.961 35.8987L119.156 36.4614C120.037 36.6867 120.76 37.1507 121.323 37.8547C121.884 38.5574 122.167 39.4067 122.167 40.4C122.167 41.5267 121.776 42.488 120.999 43.284C120.22 44.0827 119.249 44.48 118.087 44.48C117.148 44.48 116.304 44.1894 115.555 43.608C114.804 43.0267 114.316 42.2574 114.092 41.3014L112.629 41.7227C112.948 42.98 113.613 44.012 114.625 44.8187C115.639 45.624 116.793 46.028 118.087 46.028C119.625 46.028 120.947 45.4827 122.052 44.396C123.16 43.3067 123.713 41.976 123.713 40.4C123.713 39.1254 123.324 37.98 122.547 36.968C121.768 35.956 120.769 35.2894 119.549 34.9707L117.356 34.408C116.661 34.24 116.079 33.856 115.611 33.2534C115.141 32.6547 114.908 31.9707 114.908 31.2C114.908 30.32 115.232 29.5454 115.879 28.88C116.525 28.2134 117.308 27.88 118.228 27.88C119.521 27.88 120.479 28.4254 121.097 29.5134L122.447 28.752C122.015 28.0214 121.42 27.4347 120.661 26.9947C119.903 26.5547 119.089 26.3334 118.228 26.3334C116.877 26.3334 115.727 26.8067 114.78 27.7547Z" fill="url(#paint16_linear_12_129000)"/>
<path d="M125.721 31.2854V46.028H127.268V36.068H129.873V34.5214H127.268V30.5254L125.721 31.2854Z" fill="url(#paint17_linear_12_129000)"/>
<path d="M132.62 35.6467C131.417 36.8267 130.819 38.2627 130.819 39.9507C130.819 41.6014 131.417 43.0267 132.62 44.2267C133.819 45.428 135.244 46.028 136.896 46.028C138.583 46.028 140.017 45.428 141.2 44.2267C142.381 43.0267 142.972 41.6014 142.972 39.9507C142.972 38.2627 142.381 36.8267 141.2 35.6467C140.017 34.464 138.583 33.8747 136.896 33.8747C135.244 33.8747 133.819 34.464 132.62 35.6467ZM133.675 43.172C132.803 42.3 132.365 41.2254 132.365 39.9507C132.365 38.6747 132.803 37.6014 133.675 36.7294C134.547 35.856 135.62 35.4214 136.896 35.4214C138.152 35.4214 139.221 35.8627 140.103 36.7427C140.984 37.6254 141.425 38.6947 141.425 39.9507C141.425 41.208 140.984 42.276 140.103 43.1574C139.221 44.0387 138.152 44.48 136.896 44.48C135.62 44.48 134.547 44.044 133.675 43.172Z" fill="url(#paint18_linear_12_129000)"/>
<path d="M145.933 35.5614L144.639 34.5214V46.028H146.185V38.712C146.185 37.9067 146.463 37.212 147.016 36.6307C147.571 36.0494 148.279 35.7587 149.14 35.7587C149.459 35.7587 149.732 35.7947 149.956 35.8707L150.66 34.492C150.209 34.3054 149.703 34.2107 149.14 34.2107C147.865 34.2107 146.796 34.6614 145.933 35.5614Z" fill="url(#paint19_linear_12_129000)"/>
<path d="M153.037 35.6467C151.836 36.8267 151.236 38.2627 151.236 39.9507C151.236 41.6014 151.836 43.0267 153.037 44.2267C154.236 45.428 155.663 46.028 157.313 46.028C158.457 46.028 159.507 45.732 160.464 45.1414C161.423 44.5494 162.152 43.776 162.659 42.82L161.308 42.06C160.915 42.812 160.367 43.4014 159.663 43.8347C158.96 44.2654 158.175 44.48 157.313 44.48C156.281 44.48 155.372 44.18 154.584 43.58L162.433 36.66C161.927 35.8534 161.209 35.1867 160.281 34.6614C159.352 34.1374 158.364 33.8747 157.313 33.8747C155.663 33.8747 154.236 34.464 153.037 35.6467ZM152.784 39.9507C152.784 38.6747 153.22 37.6014 154.092 36.7294C154.965 35.856 156.037 35.4214 157.313 35.4214C158.439 35.4214 159.423 35.7867 160.268 36.5187L153.544 42.4814C153.037 41.7134 152.784 40.8707 152.784 39.9507Z" fill="url(#paint20_linear_12_129000)"/>
<path d="M165.356 40.3907C165.061 40.6827 164.916 41.0387 164.916 41.456C164.916 41.7974 165.02 42.104 165.225 42.372C165.431 42.644 165.699 42.82 166.031 42.908L166.708 43.0827C166.981 43.1507 167.204 43.2947 167.379 43.5134C167.552 43.7307 167.64 43.992 167.64 44.3C167.64 44.6494 167.519 44.9454 167.279 45.1907C167.037 45.4387 166.739 45.5614 166.377 45.5614C166.088 45.5614 165.827 45.472 165.595 45.292C165.363 45.112 165.212 44.8747 165.143 44.5787L164.689 44.7094C164.789 45.0974 164.995 45.4174 165.308 45.6654C165.621 45.916 165.977 46.0414 166.377 46.0414C166.853 46.0414 167.263 45.8734 167.605 45.536C167.947 45.2 168.119 44.788 168.119 44.3C168.119 43.9054 167.997 43.552 167.756 43.2387C167.517 42.9254 167.207 42.72 166.831 42.6214L166.152 42.4467C165.937 42.3947 165.757 42.276 165.611 42.0907C165.468 41.9054 165.395 41.6934 165.395 41.456C165.395 41.1827 165.495 40.944 165.695 40.7374C165.896 40.532 166.139 40.428 166.421 40.428C166.821 40.428 167.117 40.596 167.308 40.9334L167.725 40.6987C167.593 40.4734 167.409 40.2907 167.173 40.1547C166.939 40.0187 166.689 39.9507 166.421 39.9507C166.004 39.9507 165.648 40.096 165.356 40.3907Z" fill="url(#paint21_linear_12_129000)"/>
<path d="M168.509 45.9533H168.988V45.4747H168.509V45.9533Z" fill="url(#paint22_linear_12_129000)"/>
<path d="M169.667 40.0374L169.379 40.516H170.092V45.9533H170.571V44.2667H171.013L172.44 45.9533H173.076L171.597 44.2134C171.899 44.144 172.177 44.0107 172.433 43.812C172.688 43.616 172.888 43.368 173.033 43.0733C173.179 42.7787 173.251 42.4707 173.251 42.152C173.251 41.7747 173.156 41.4227 172.968 41.0947C172.78 40.7667 172.521 40.508 172.193 40.32C171.865 40.132 171.515 40.0374 171.136 40.0374H169.667ZM170.571 40.516H171.136C171.415 40.516 171.679 40.5827 171.928 40.716C172.177 40.8493 172.379 41.04 172.537 41.2907C172.693 41.54 172.772 41.8267 172.772 42.152C172.772 42.5933 172.62 42.976 172.32 43.3C172.019 43.6253 171.623 43.7867 171.136 43.7867H170.571V40.516Z" fill="url(#paint23_linear_12_129000)"/>
<path d="M173.641 45.9533H174.12V45.4747H173.641V45.9533Z" fill="url(#paint24_linear_12_129000)"/>
<path d="M174.643 40.0374V45.9533H176.747V45.4747H175.121V40.0374H174.643Z" fill="url(#paint25_linear_12_129000)"/>
<path d="M177.269 45.9533H177.748V45.4747H177.269V45.9533Z" fill="url(#paint26_linear_12_129000)"/>
<defs>
<linearGradient id="paint0_linear_12_129000" x1="-0.000790667" y1="24.1813" x2="45.1599" y2="24.1813" gradientUnits="userSpaceOnUse">
<stop stop-color="#BB8D3B"/>
<stop offset="0.156425" stop-color="#BB8D3B"/>
<stop offset="0.229236" stop-color="#FBF1A8"/>
<stop offset="0.310056" stop-color="#FBF1A8"/>
<stop offset="0.511173" stop-color="#C99150"/>
<stop offset="0.695531" stop-color="#F6E59F"/>
<stop offset="0.932961" stop-color="#B3863A"/>
<stop offset="1" stop-color="#B3863A"/>
</linearGradient>
<radialGradient id="paint1_radial_12_129000" cx="0" cy="0" r="1" gradientUnits="userSpaceOnUse" gradientTransform="translate(59.6481 15.2216) scale(9.47871 9.47871)">
<stop stop-color="#BB8D3B"/>
<stop offset="0.48713" stop-color="#EBD08B"/>
<stop offset="0.494413" stop-color="#EBD08B"/>
<stop offset="0.663863" stop-color="#C99150"/>
<stop offset="0.851955" stop-color="#C99150"/>
<stop offset="1" stop-color="#C99150"/>
</radialGradient>
<radialGradient id="paint2_radial_12_129000" cx="0" cy="0" r="1" gradientUnits="userSpaceOnUse" gradientTransform="translate(70.8582 19.0194) scale(5.70149)">
<stop stop-color="#BB8D3B"/>
<stop offset="0.48713" stop-color="#EBD08B"/>
<stop offset="0.494413" stop-color="#EBD08B"/>
<stop offset="0.663863" stop-color="#C99150"/>
<stop offset="0.851955" stop-color="#C99150"/>
<stop offset="1" stop-color="#C99150"/>
</radialGradient>
<radialGradient id="paint3_radial_12_129000" cx="0" cy="0" r="1" gradientUnits="userSpaceOnUse" gradientTransform="translate(80.9697 19.131) scale(5.06365 5.06364)">
<stop stop-color="#BB8D3B"/>
<stop offset="0.48713" stop-color="#EBD08B"/>
<stop offset="0.494413" stop-color="#EBD08B"/>
<stop offset="0.663863" stop-color="#C99150"/>
<stop offset="0.851955" stop-color="#C99150"/>
<stop offset="1" stop-color="#C99150"/>
</radialGradient>
<radialGradient id="paint4_radial_12_129000" cx="0" cy="0" r="1" gradientUnits="userSpaceOnUse" gradientTransform="translate(89.5579 19.0193) scale(5.41726 5.41726)">
<stop stop-color="#BB8D3B"/>
<stop offset="0.48713" stop-color="#EBD08B"/>
<stop offset="0.494413" stop-color="#EBD08B"/>
<stop offset="0.663863" stop-color="#C99150"/>
<stop offset="0.851955" stop-color="#C99150"/>
<stop offset="1" stop-color="#C99150"/>
</radialGradient>
<radialGradient id="paint5_radial_12_129000" cx="0" cy="0" r="1" gradientUnits="userSpaceOnUse" gradientTransform="translate(97.6745 16.9095) scale(5.75541 5.75541)">
<stop stop-color="#BB8D3B"/>
<stop offset="0.48713" stop-color="#EBD08B"/>
<stop offset="0.494413" stop-color="#EBD08B"/>
<stop offset="0.663863" stop-color="#C99150"/>
<stop offset="0.851955" stop-color="#C99150"/>
<stop offset="1" stop-color="#C99150"/>
</radialGradient>
<radialGradient id="paint6_radial_12_129000" cx="0" cy="0" r="1" gradientUnits="userSpaceOnUse" gradientTransform="translate(104.947 18.5601) scale(5.06561)">
<stop stop-color="#BB8D3B"/>
<stop offset="0.48713" stop-color="#EBD08B"/>
<stop offset="0.494413" stop-color="#EBD08B"/>
<stop offset="0.663863" stop-color="#C99150"/>
<stop offset="0.851955" stop-color="#C99150"/>
<stop offset="1" stop-color="#C99150"/>
</radialGradient>
<radialGradient id="paint7_radial_12_129000" cx="0" cy="0" r="1" gradientUnits="userSpaceOnUse" gradientTransform="translate(114.64 19.0069) scale(5.85966 5.85966)">
<stop stop-color="#BB8D3B"/>
<stop offset="0.48713" stop-color="#EBD08B"/>
<stop offset="0.494413" stop-color="#EBD08B"/>
<stop offset="0.663863" stop-color="#C99150"/>
<stop offset="0.851955" stop-color="#C99150"/>
<stop offset="1" stop-color="#C99150"/>
</radialGradient>
<radialGradient id="paint8_radial_12_129000" cx="0" cy="0" r="1" gradientUnits="userSpaceOnUse" gradientTransform="translate(133.855 15.4946) scale(8.44536 8.44535)">
<stop stop-color="#BB8D3B"/>
<stop offset="0.48713" stop-color="#EBD08B"/>
<stop offset="0.494413" stop-color="#EBD08B"/>
<stop offset="0.663863" stop-color="#C99150"/>
<stop offset="0.851955" stop-color="#C99150"/>
<stop offset="1" stop-color="#C99150"/>
</radialGradient>
<radialGradient id="paint9_radial_12_129000" cx="0" cy="0" r="1" gradientUnits="userSpaceOnUse" gradientTransform="translate(148.012 18.9945) scale(5.66197)">
<stop stop-color="#BB8D3B"/>
<stop offset="0.48713" stop-color="#EBD08B"/>
<stop offset="0.494413" stop-color="#EBD08B"/>
<stop offset="0.663863" stop-color="#C99150"/>
<stop offset="0.851955" stop-color="#C99150"/>
<stop offset="1" stop-color="#C99150"/>
</radialGradient>
<radialGradient id="paint10_radial_12_129000" cx="0" cy="0" r="1" gradientUnits="userSpaceOnUse" gradientTransform="translate(159.343 15.9042) scale(7.67033 7.67032)">
<stop stop-color="#BB8D3B"/>
<stop offset="0.48713" stop-color="#EBD08B"/>
<stop offset="0.494413" stop-color="#EBD08B"/>
<stop offset="0.663863" stop-color="#C99150"/>
<stop offset="0.851955" stop-color="#C99150"/>
<stop offset="1" stop-color="#C99150"/>
</radialGradient>
<radialGradient id="paint11_radial_12_129000" cx="0" cy="0" r="1" gradientUnits="userSpaceOnUse" gradientTransform="translate(170.587 19.0069) scale(5.85955 5.85954)">
<stop stop-color="#BB8D3B"/>
<stop offset="0.48713" stop-color="#EBD08B"/>
<stop offset="0.494413" stop-color="#EBD08B"/>
<stop offset="0.663863" stop-color="#C99150"/>
<stop offset="0.851955" stop-color="#C99150"/>
<stop offset="1" stop-color="#C99150"/>
</radialGradient>
<linearGradient id="paint12_linear_12_129000" x1="49.1486" y1="36.6591" x2="66.039" y2="36.6591" gradientUnits="userSpaceOnUse">
<stop stop-color="#B98A37"/>
<stop offset="0.5" stop-color="#D4B56C"/>
<stop offset="1" stop-color="#B3863A"/>
</linearGradient>
<linearGradient id="paint13_linear_12_129000" x1="68.0724" y1="39.9505" x2="80.2262" y2="39.9505" gradientUnits="userSpaceOnUse">
<stop stop-color="#B98A37"/>
<stop offset="0.5" stop-color="#D4B56C"/>
<stop offset="1" stop-color="#B3863A"/>
</linearGradient>
<linearGradient id="paint14_linear_12_129000" x1="81.893" y1="40.1193" x2="98.2389" y2="40.1193" gradientUnits="userSpaceOnUse">
<stop stop-color="#B98A37"/>
<stop offset="0.5" stop-color="#D4B56C"/>
<stop offset="1" stop-color="#B3863A"/>
</linearGradient>
<linearGradient id="paint15_linear_12_129000" x1="99.9052" y1="39.9505" x2="111.328" y2="39.9505" gradientUnits="userSpaceOnUse">
<stop stop-color="#B98A37"/>
<stop offset="0.5" stop-color="#D4B56C"/>
<stop offset="1" stop-color="#B3863A"/>
</linearGradient>
<linearGradient id="paint16_linear_12_129000" x1="112.629" y1="36.1806" x2="123.713" y2="36.1806" gradientUnits="userSpaceOnUse">
<stop stop-color="#B98A37"/>
<stop offset="0.5" stop-color="#D4B56C"/>
<stop offset="1" stop-color="#B3863A"/>
</linearGradient>
<linearGradient id="paint17_linear_12_129000" x1="125.721" y1="38.2766" x2="129.873" y2="38.2766" gradientUnits="userSpaceOnUse">
<stop stop-color="#B98A37"/>
<stop offset="0.5" stop-color="#D4B56C"/>
<stop offset="1" stop-color="#B3863A"/>
</linearGradient>
<linearGradient id="paint18_linear_12_129000" x1="130.818" y1="39.9505" x2="142.972" y2="39.9505" gradientUnits="userSpaceOnUse">
<stop stop-color="#B98A37"/>
<stop offset="0.5" stop-color="#D4B56C"/>
<stop offset="1" stop-color="#B3863A"/>
</linearGradient>
<linearGradient id="paint19_linear_12_129000" x1="144.639" y1="40.1193" x2="150.66" y2="40.1193" gradientUnits="userSpaceOnUse">
<stop stop-color="#B98A37"/>
<stop offset="0.5" stop-color="#D4B56C"/>
<stop offset="1" stop-color="#B3863A"/>
</linearGradient>
<linearGradient id="paint20_linear_12_129000" x1="151.236" y1="39.9505" x2="162.659" y2="39.9505" gradientUnits="userSpaceOnUse">
<stop stop-color="#B98A37"/>
<stop offset="0.5" stop-color="#D4B56C"/>
<stop offset="1" stop-color="#B3863A"/>
</linearGradient>
<linearGradient id="paint21_linear_12_129000" x1="164.69" y1="42.9954" x2="168.118" y2="42.9954" gradientUnits="userSpaceOnUse">
<stop stop-color="#B98A37"/>
<stop offset="0.5" stop-color="#D4B56C"/>
<stop offset="1" stop-color="#B3863A"/>
</linearGradient>
<linearGradient id="paint22_linear_12_129000" x1="168.509" y1="45.714" x2="168.988" y2="45.714" gradientUnits="userSpaceOnUse">
<stop stop-color="#B98A37"/>
<stop offset="0.5" stop-color="#D4B56C"/>
<stop offset="1" stop-color="#B3863A"/>
</linearGradient>
<linearGradient id="paint23_linear_12_129000" x1="169.379" y1="42.9953" x2="173.25" y2="42.9953" gradientUnits="userSpaceOnUse">
<stop stop-color="#B98A37"/>
<stop offset="0.5" stop-color="#D4B56C"/>
<stop offset="1" stop-color="#B3863A"/>
</linearGradient>
<linearGradient id="paint24_linear_12_129000" x1="173.642" y1="45.714" x2="174.12" y2="45.714" gradientUnits="userSpaceOnUse">
<stop stop-color="#B98A37"/>
<stop offset="0.5" stop-color="#D4B56C"/>
<stop offset="1" stop-color="#B3863A"/>
</linearGradient>
<linearGradient id="paint25_linear_12_129000" x1="174.642" y1="42.9953" x2="176.748" y2="42.9953" gradientUnits="userSpaceOnUse">
<stop stop-color="#B98A37"/>
<stop offset="0.5" stop-color="#D4B56C"/>
<stop offset="1" stop-color="#B3863A"/>
</linearGradient>
<linearGradient id="paint26_linear_12_129000" x1="177.27" y1="45.714" x2="177.748" y2="45.714" gradientUnits="userSpaceOnUse">
<stop stop-color="#B98A37"/>
<stop offset="0.5" stop-color="#D4B56C"/>
<stop offset="1" stop-color="#B3863A"/>
</linearGradient>
</defs>
</svg>
