<svg xmlns="http://www.w3.org/2000/svg" version="1.1" viewBox="-5.0 -10.0 110.0 135.0">
 <path d="m13.477 84.375h73.047c3.9844 0 7.2266-3.2422 7.2266-7.2266v-46.098c0-3.9844-3.2422-7.2266-7.2266-7.2266h-19.738c-0.53906 0-0.97656-0.4375-0.97656-0.97656 0-3.9844-3.2422-7.2266-7.2266-7.2266h-17.176c-3.9844 0-7.2266 3.2422-7.2266 7.2266 0 0.53906-0.4375 0.97656-0.97656 0.97656h-19.727c-3.9844 0-7.2266 3.2422-7.2266 7.2266v46.102c0 3.9844 3.2422 7.2266 7.2266 7.2266zm-0.97656-53.324c0-0.53906 0.4375-0.97656 0.97656-0.97656h19.738c3.9844 0 7.2266-3.2422 7.2266-7.2266 0-0.53906 0.4375-0.97656 0.97656-0.97656h17.176c0.53906 0 0.97656 0.4375 0.97656 0.97656 0 3.9844 3.2422 7.2266 7.2266 7.2266h19.738c0.53906 0 0.97656 0.4375 0.97656 0.97656v46.102c0 0.53906-0.4375 0.97656-0.97656 0.97656l-73.059-0.003906c-0.53906 0-0.97656-0.4375-0.97656-0.97656z"/>
 <path d="m50 71.156c9.5859 0 17.391-7.8047 17.391-17.391s-7.8047-17.391-17.391-17.391-17.391 7.8047-17.391 17.391 7.8047 17.391 17.391 17.391zm0-28.531c6.1445 0 11.141 4.9961 11.141 11.141s-4.9961 11.141-11.141 11.141-11.141-4.9961-11.141-11.141 4.9961-11.141 11.141-11.141z"/>
 </svg>