<svg xmlns="http://www.w3.org/2000/svg" version="1.1" viewBox="-5.0 -10.0 110.0 135.0">
 <path d="m55.832 38.434c-5.1445 1.5586-9.6211 4.668-12.887 8.7812-3.5391 4.457-5.6562 10.105-5.6562 16.25 0 7.2227 2.9258 13.758 7.6602 18.488 4.7305 4.7305 11.27 7.6602 18.488 7.6602 7.2227 0 13.758-2.9258 18.488-7.6602 4.7305-4.7305 7.6602-11.27 7.6602-18.488 0-6.6445-2.4648-12.699-6.5312-17.305-3.2734-3.707-7.5859-6.4805-12.488-7.8633 0.41797 1.5703 0.71484 3.1914 0.87891 4.8516 3.8477 1.5195 7.1602 4.0977 9.5781 7.3711 2.6758 3.625 4.2539 8.1016 4.2539 12.941 0 6.0312-2.4453 11.492-6.3984 15.441-3.9531 3.9531-9.4141 6.3984-15.441 6.3984-6.0312 0-11.492-2.4453-15.441-6.3984-3.9531-3.9531-6.3984-9.4141-6.3984-15.441 0-5.3281 1.9141-10.215 5.0898-14.008 2.7383-3.2734 6.418-5.7266 10.625-6.957-0.32422-1.4297-0.82422-2.793-1.4805-4.0625zm8.957-2.293c1.3047 3.1094 2.0234 6.5273 2.0234 10.113 0 6.1445-2.1133 11.793-5.6562 16.25-3.2695 4.1133-7.7422 7.2188-12.887 8.7812-0.65625-1.2695-1.1562-2.6328-1.4805-4.0664 4.207-1.2266 7.8867-3.6836 10.625-6.957 3.1758-3.793 5.0898-8.6797 5.0898-14.008 0-6.0312-2.4453-11.492-6.3984-15.441-3.0352-3.0352-6.957-5.1797-11.344-6.0117l3.1523-3.6797c5.2852 1.5234 9.8867 4.668 13.227 8.8672 1.4492 1.8203 2.6602 3.8398 3.5859 6.0117 0.023438 0.042969 0.042969 0.09375 0.0625 0.14062zm-31.25 35.277c-0.41797-1.5703-0.71484-3.1914-0.87891-4.8516-3.8477-1.5195-7.1602-4.0977-9.5781-7.375-2.6719-3.625-4.2539-8.1016-4.2539-12.941 0-6.0312 2.4453-11.492 6.3984-15.441 2.9531-2.9531 6.7461-5.0625 10.992-5.9414l-3.1328-3.6523c-5.1953 1.5742-9.7148 4.7266-12.996 8.9023-3.4883 4.4414-5.5703 10.043-5.5703 16.137 0 6.6445 2.4648 12.699 6.5312 17.305 3.2773 3.707 7.5898 6.4766 12.488 7.8594zm11.672-52.555c0.035156-0.042969 0.070312-0.085937 0.10937-0.12891l4.2383-4.9453-3.2656-3.4023h-11.664l-3.2656 3.4023 9.0977 10.613zm-34.793-0.56641c0.88281-0.63672 1.7109-1.3398 2.4766-2.1055s1.4727-1.5977 2.1055-2.4766c0.63281 0.88281 1.3398 1.7109 2.1055 2.4766 0.76562 0.76953 1.5977 1.4727 2.4766 2.1055-0.88281 0.63672-1.7109 1.3398-2.4766 2.1055s-1.4727 1.5977-2.1055 2.4766c-0.63672-0.88281-1.3398-1.7109-2.1055-2.4766s-1.5938-1.4688-2.4766-2.1055zm58.027 4.5859c0.63281-0.88281 1.3398-1.7109 2.1055-2.4766s1.5977-1.4727 2.4766-2.1055c-0.88281-0.63672-1.7109-1.3398-2.4766-2.1055-0.76562-0.76562-1.4727-1.5977-2.1055-2.4766-0.63281 0.88281-1.3398 1.7109-2.1055 2.4766-0.76562 0.76953-1.5977 1.4727-2.4766 2.1055 0.88281 0.63672 1.7109 1.3398 2.4766 2.1055s1.4727 1.5938 2.1055 2.4766z" fill-rule="evenodd"/>
<text x="0.0" y="117.5" font-size="5.0" font-weight="bold" font-family="Arbeit Regular, Helvetica, Arial-Unicode, Arial, Sans-serif" fill="#000000">Created by Siti Zulaikah</text><text x="0.0" y="122.5" font-size="5.0" font-weight="bold" font-family="Arbeit Regular, Helvetica, Arial-Unicode, Arial, Sans-serif" fill="#000000">from Noun Project</text></svg>